G04 SilkscreenBottom *
G04 Layout NRF24L01_MOTOR.pcb *
G04 Designed with PCB elegance 3.52 *
G04 *
G04 *
%FSLAX44Y44*%
%MOMM*%
G75*
G01*
%IPPOS*%
%ADD100C,0.1530*%
%ADD101C,0.2000*%
%ADD200C,0.2000*%
%ADD201C,0.7000*%
G54D200*
X210000Y446500D02*
Y443500D01*
X218000Y446500D02*
Y443500D01*
X210000Y420500D02*
Y417500D01*
X218000Y420500D02*
Y417500D01*
X210000Y394000D02*
Y392000D01*
X218000Y394000D02*
Y392000D01*
X210000Y368000D02*
Y366000D01*
X218000Y368000D02*
Y366000D01*
X294000Y310900D02*
X208000D01*
Y277100D02*
Y310900D01*
X294000Y277100D02*
X208000D01*
X264400Y241000D02*
X261600D01*
X264400Y249000D02*
X261600D01*
X242800Y370800D02*
Y433200D01*
X305200Y370800D02*
X242800D01*
X305200Y433200D02*
X242800D01*
X305200Y370800D02*
Y433200D01*
X323500Y452000D02*
X320500D01*
X323500Y444000D02*
X320500D01*
X309000Y364500D02*
Y351500D01*
X309600Y364500D02*
X309000D01*
X294000Y277100D02*
Y310900D01*
X310900Y303500D02*
X317100D01*
X330000Y315400D02*
Y316600D01*
X298000Y315400D02*
Y316600D01*
X310900Y328500D02*
X317100D01*
X309600Y351500D02*
X309000D01*
X341000Y364500D02*
Y351500D01*
X340400D01*
X344000Y386000D02*
X346000D01*
X344000Y394000D02*
X346000D01*
X341000Y364500D02*
X340400D01*
X344000Y402000D02*
X346000D01*
X344000Y410000D02*
X346000D01*
X349500Y444000D02*
X346500D01*
X349500Y452000D02*
X346500D01*
G54D201*
X309900Y437900D03*
X292300Y334100D03*
X297400Y272200D03*
X340100Y457700D03*
G54D100*
X324333Y257000D02*
Y261000D01*
Y260333D01*
X323667Y261000D01*
X321667D01*
X321000Y260333D01*
Y257000D01*
X319000D02*
Y263000D01*
X315667D01*
X315000Y262333D01*
Y261000D01*
X315667Y260333D01*
X319000D01*
X318333D02*
X315000Y257000D01*
X309000Y263000D02*
X313000D01*
Y257000D01*
Y260333D02*
X310333D01*
X307000Y262333D02*
X306333Y263000D01*
X304333D01*
X303667Y262333D01*
Y261667D01*
X307000Y258333D01*
Y257000D01*
X303667D01*
X297667Y259667D02*
X301000D01*
Y260333D01*
X298333Y263000D01*
Y257000D01*
X326333Y278000D02*
Y275333D01*
X325000Y274000D01*
X324333D01*
X323000Y275333D01*
Y278000D01*
X320333Y278667D02*
X319000Y280000D01*
Y274000D01*
X320333D01*
X317667D01*
X313000D02*
X312333D01*
Y274667D01*
X313000D01*
Y274000D01*
X305000Y279333D02*
Y274667D01*
X305667Y274000D01*
X308333D01*
X309000Y274667D01*
Y279333D01*
X308333Y280000D01*
X305667D01*
X305000Y279333D01*
Y278667D01*
X309000Y274667D01*
G54D101*
M02*
