G04 Top_1 *
G04 Layout NRF24L01_MOTOR.pcb *
G04 Designed with PCB elegance 3.52 *
G04 *
G04 *
%FSLAX33Y33*%
%MOMM*%
G75*
G01*
%IPPOS*%
%ADD100C,0.2000*%
%ADD101C,0.7000*%
%ADD102C,0.6000*%
%ADD103C,0.4000*%
%ADD104C,0.6500*%
%ADD105C,1.0000*%
%ADD200C,1.8000*%
%ADD201C,1.1500*%
%ADD202C,0.6000*%
%ADD400R,0.6500X1.7100*%
%ADD401R,1.4700X0.9900*%
%ADD402R,2.2000X1.0000*%
%ADD403R,0.6200X1.1400*%
%ADD404R,0.7600X0.9300*%
%ADD405R,0.9300X0.8100*%
%LPD*%G36*
X20500Y47300D02*
X36200D01*
Y23900D01*
X20500D01*
Y47300D01*
G37*
%LPC*%G36*
X26737Y38337D02*
X26625Y38503D01*
X26586Y38700D01*
X26625Y38897D01*
X26737Y39063D01*
X26903Y39175D01*
X27100Y39214D01*
X27297Y39175D01*
X27463Y39063D01*
X27575Y38897D01*
X27614Y38700D01*
X27575Y38503D01*
X27463Y38337D01*
X27410Y38301D01*
Y36700D01*
X27386Y36582D01*
X27319Y36481D01*
X24323Y33485D01*
Y31447D01*
X23267D01*
Y33563D01*
X23542D01*
X23576Y33614D01*
X26790Y36828D01*
Y38301D01*
X26737Y38337D01*
G37*
%LPC*%G36*
X25593Y28353D02*
Y27351D01*
X25604Y27295D01*
Y25995D01*
X25563Y25789D01*
X25446Y25614D01*
X25433Y25600D01*
X25459Y25517D01*
X25480Y25300D01*
X25459Y25083D01*
X25395Y24875D01*
X25293Y24683D01*
X25155Y24515D01*
X24987Y24377D01*
X24795Y24275D01*
X24587Y24212D01*
X24370Y24190D01*
X24153Y24212D01*
X23945Y24275D01*
X23753Y24377D01*
X23585Y24515D01*
X23447Y24683D01*
X23345Y24875D01*
X23282Y25083D01*
X23260Y25300D01*
X23282Y25517D01*
X23345Y25725D01*
X23447Y25917D01*
X23585Y26085D01*
X23753Y26223D01*
X23945Y26325D01*
X24153Y26389D01*
X24370Y26410D01*
X24526Y26394D01*
Y27295D01*
X24537Y27351D01*
Y28353D01*
X25593D01*
G37*
%LPC*%G36*
X20727Y27351D02*
Y28353D01*
X21783D01*
Y27351D01*
X21794Y27295D01*
Y26406D01*
X21830Y26410D01*
X22047Y26389D01*
X22255Y26325D01*
X22447Y26223D01*
X22615Y26085D01*
X22753Y25917D01*
X22855Y25725D01*
X22919Y25517D01*
X22940Y25300D01*
X22919Y25083D01*
X22855Y24875D01*
X22753Y24683D01*
X22615Y24515D01*
X22447Y24377D01*
X22255Y24275D01*
X22047Y24211D01*
X21830Y24190D01*
X21613Y24211D01*
X21405Y24275D01*
X21213Y24377D01*
X21045Y24515D01*
X20907Y24683D01*
X20805Y24875D01*
X20741Y25083D01*
X20720Y25300D01*
X20741Y25517D01*
X20778Y25637D01*
X20757Y25669D01*
X20716Y25875D01*
Y27295D01*
X20727Y27351D01*
G37*
%LPC*%G36*
X29617Y28353D02*
X30673D01*
Y28013D01*
X32438D01*
Y26617D01*
X30673D01*
Y26237D01*
X30404Y26229D01*
X30355Y26085D01*
X30404Y26024D01*
X30562D01*
Y26183D01*
X32438D01*
Y24787D01*
X30562D01*
X30493Y24683D01*
X30355Y24515D01*
X30187Y24377D01*
X29995Y24275D01*
X29787Y24211D01*
X29570Y24190D01*
X29353Y24211D01*
X29145Y24275D01*
X28953Y24377D01*
X28785Y24515D01*
X28647Y24683D01*
X28545Y24875D01*
X28481Y25083D01*
X28460Y25300D01*
X28481Y25517D01*
X28545Y25725D01*
X28647Y25917D01*
X28785Y26085D01*
X28953Y26223D01*
X29145Y26325D01*
X29353Y26389D01*
X29570Y26410D01*
X29617Y26405D01*
Y27239D01*
X29606Y27295D01*
X29617Y27351D01*
Y28353D01*
G37*
%LPC*%G36*
X25796Y27295D02*
X25807Y27351D01*
Y28353D01*
X26863D01*
Y27351D01*
X26874Y27295D01*
Y26394D01*
X27030Y26410D01*
X27247Y26389D01*
X27455Y26325D01*
X27647Y26223D01*
X27815Y26085D01*
X27953Y25917D01*
X28055Y25725D01*
X28119Y25517D01*
X28140Y25300D01*
X28119Y25083D01*
X28055Y24875D01*
X27953Y24683D01*
X27815Y24515D01*
X27647Y24377D01*
X27455Y24275D01*
X27247Y24211D01*
X27030Y24190D01*
X26813Y24211D01*
X26605Y24275D01*
X26413Y24377D01*
X26245Y24515D01*
X26107Y24683D01*
X26005Y24875D01*
X25941Y25083D01*
X25920Y25300D01*
X25941Y25517D01*
X25967Y25600D01*
X25954Y25614D01*
X25837Y25789D01*
X25796Y25995D01*
Y27295D01*
G37*
%LPC*%G36*
X28272Y39690D02*
X26499D01*
X26463Y39637D01*
X26297Y39525D01*
X26100Y39486D01*
X25903Y39525D01*
X25737Y39637D01*
X25625Y39803D01*
X25586Y40000D01*
X25625Y40197D01*
X25737Y40363D01*
X25903Y40475D01*
X26100Y40514D01*
X26297Y40475D01*
X26325Y40503D01*
X26286Y40700D01*
X26325Y40897D01*
X26437Y41063D01*
X26603Y41175D01*
X26800Y41214D01*
X26997Y41175D01*
X27025Y41203D01*
X26986Y41400D01*
X27025Y41597D01*
X27137Y41763D01*
X27303Y41875D01*
X27500Y41914D01*
X27697Y41875D01*
X27725Y41903D01*
X27686Y42100D01*
X27725Y42297D01*
X27837Y42463D01*
X28003Y42575D01*
X28200Y42614D01*
X28397Y42575D01*
X28425Y42603D01*
X28386Y42800D01*
X28425Y42997D01*
X28537Y43163D01*
X28703Y43275D01*
X28900Y43314D01*
X29097Y43275D01*
X29263Y43163D01*
X29299Y43110D01*
X30347D01*
Y43342D01*
Y44748D01*
X32832D01*
Y44789D01*
Y44830D01*
X31672Y45990D01*
X31250D01*
X31082Y45738D01*
X30824Y45566D01*
X30520Y45505D01*
X30216Y45566D01*
X29958Y45738D01*
X29786Y45996D01*
X29725Y46300D01*
X29786Y46604D01*
X29958Y46862D01*
X30216Y47034D01*
X30520Y47095D01*
X30824Y47034D01*
X31082Y46862D01*
X31250Y46610D01*
X31800D01*
X31918Y46586D01*
X32019Y46519D01*
X32265Y46300D01*
X32326Y46604D01*
X32498Y46862D01*
X32756Y47034D01*
X33060Y47095D01*
X33364Y47034D01*
X33622Y46862D01*
X33794Y46604D01*
X33813Y46510D01*
X34755Y45568D01*
X35568D01*
Y44232D01*
X34755D01*
X34010Y43487D01*
Y43399D01*
X34063Y43363D01*
X34175Y43197D01*
X34214Y43000D01*
X34175Y42803D01*
X34164Y42787D01*
Y41935D01*
X34163Y41932D01*
Y41162D01*
X33137D01*
Y41932D01*
X33136Y41935D01*
Y42950D01*
X33175Y43147D01*
X33287Y43313D01*
X33337Y43363D01*
X33390Y43399D01*
Y43615D01*
X33414Y43733D01*
X33481Y43834D01*
X33671Y44024D01*
X33585Y44232D01*
X33416D01*
X32953D01*
Y43342D01*
Y42072D01*
Y40802D01*
Y39532D01*
Y38262D01*
Y36992D01*
X30347D01*
Y37615D01*
X28272Y39690D01*
G37*
%LPC*%G36*
X35825Y31975D02*
X35889Y32183D01*
X35910Y32400D01*
X35889Y32617D01*
X35845Y32759D01*
X35875Y32803D01*
X35914Y33000D01*
Y38665D01*
X35875Y38862D01*
X35763Y39028D01*
X35113Y39678D01*
Y40238D01*
X34087D01*
Y39468D01*
X34086Y39465D01*
X34087Y39462D01*
Y38692D01*
X34647D01*
X34886Y38452D01*
Y33501D01*
X34800Y33510D01*
X34583Y33489D01*
X34375Y33425D01*
X34183Y33323D01*
X34015Y33185D01*
X33877Y33017D01*
X33775Y32825D01*
X33711Y32617D01*
X33690Y32400D01*
X33711Y32183D01*
X33775Y31975D01*
X33877Y31783D01*
X34015Y31615D01*
X34183Y31477D01*
X34159Y31378D01*
X33500D01*
X26900D01*
Y32505D01*
X26863Y32689D01*
Y33101D01*
Y33513D01*
X27000Y33486D01*
X27063Y33499D01*
X27077Y33485D01*
Y31447D01*
X28133D01*
Y33563D01*
X27858D01*
X27824Y33614D01*
X27501Y33937D01*
X27514Y34000D01*
X27475Y34197D01*
X27363Y34363D01*
X27372Y34390D01*
X28028D01*
X28037Y34363D01*
X27925Y34197D01*
X27886Y34000D01*
X27925Y33803D01*
X28037Y33637D01*
X28203Y33525D01*
X28347Y33497D01*
Y31447D01*
X29403D01*
Y33157D01*
X29617Y33245D01*
Y31447D01*
X30673D01*
Y33563D01*
X30175D01*
X29038Y34700D01*
X29728Y35390D01*
X30254Y34864D01*
X30347Y34802D01*
Y34452D01*
X32953D01*
Y35858D01*
X30424D01*
X28936Y37346D01*
X28975Y37403D01*
X29014Y37600D01*
X28975Y37797D01*
X28863Y37963D01*
X28697Y38075D01*
X28500Y38114D01*
X28303Y38075D01*
X28137Y37963D01*
X28025Y37797D01*
X27986Y37600D01*
X28025Y37403D01*
X28088Y37309D01*
Y37200D01*
X28120Y37042D01*
X28209Y36909D01*
X29290Y35828D01*
X28472Y35010D01*
X26800D01*
X26682Y34986D01*
X26581Y34919D01*
X25225Y33563D01*
X24537D01*
Y31447D01*
X24690D01*
Y30999D01*
X24637Y30963D01*
X24525Y30797D01*
X24486Y30600D01*
X24525Y30403D01*
X24618Y30265D01*
X23434D01*
X22460Y31239D01*
X22546Y31447D01*
X23053D01*
Y33563D01*
X23038Y33600D01*
X23837Y34399D01*
X23900Y34386D01*
X24097Y34425D01*
X24263Y34537D01*
X24375Y34703D01*
X24414Y34900D01*
X24375Y35097D01*
X24263Y35263D01*
X24210Y35299D01*
Y36700D01*
X24186Y36818D01*
X24119Y36919D01*
X23610Y37428D01*
Y41492D01*
X27682Y45565D01*
X27980Y45505D01*
X28284Y45566D01*
X28542Y45738D01*
X28714Y45996D01*
X28775Y46300D01*
X28714Y46604D01*
X28542Y46862D01*
X28284Y47034D01*
X27980Y47095D01*
X27676Y47034D01*
X27418Y46862D01*
X27246Y46604D01*
X27185Y46300D01*
X27245Y46002D01*
X25958Y44715D01*
X25750Y44802D01*
Y45570D01*
X26002Y45738D01*
X26174Y45996D01*
X26235Y46300D01*
X26174Y46604D01*
X26002Y46862D01*
X25744Y47034D01*
X25440Y47095D01*
X25136Y47034D01*
X24878Y46862D01*
X24706Y46604D01*
X24645Y46300D01*
X24706Y45996D01*
X24878Y45738D01*
X25130Y45570D01*
Y44468D01*
X23870Y43208D01*
X22818Y42155D01*
X22610Y42242D01*
Y45563D01*
X22900Y45505D01*
X23204Y45566D01*
X23462Y45738D01*
X23634Y45996D01*
X23695Y46300D01*
X23634Y46604D01*
X23462Y46862D01*
X23204Y47034D01*
X22900Y47095D01*
X22596Y47034D01*
X22338Y46862D01*
X22166Y46604D01*
X22105Y46300D01*
X22165Y46002D01*
X22081Y45919D01*
X22014Y45818D01*
X21990Y45700D01*
Y36800D01*
X22008Y36711D01*
X21986Y36600D01*
X22025Y36403D01*
X22137Y36237D01*
X22303Y36125D01*
X22500Y36086D01*
X22697Y36125D01*
X22725Y36097D01*
X22686Y35900D01*
X22725Y35703D01*
X22837Y35537D01*
X23003Y35425D01*
X23200Y35386D01*
X23397Y35425D01*
X23563Y35537D01*
X23590Y35299D01*
X23537Y35263D01*
X23425Y35097D01*
X23386Y34900D01*
X23399Y34837D01*
X22306Y33744D01*
X22239Y33643D01*
X22223Y33563D01*
X21997D01*
Y31952D01*
X21820Y31879D01*
Y32505D01*
X21783Y32689D01*
Y33563D01*
X21610D01*
Y45734D01*
X21763Y45837D01*
X21875Y46003D01*
X21914Y46200D01*
X21875Y46397D01*
X21763Y46563D01*
X21597Y46675D01*
X21400Y46714D01*
X21203Y46675D01*
X21037Y46563D01*
X20925Y46397D01*
X20886Y46200D01*
X20925Y46003D01*
X20990Y45906D01*
Y33563D01*
X20727D01*
Y32689D01*
X20690Y32505D01*
Y31645D01*
X20727Y31461D01*
Y31447D01*
X20730D01*
X20733Y31429D01*
X20856Y31246D01*
X22801Y29301D01*
X22984Y29178D01*
X23200Y29135D01*
X25400D01*
X25616Y29178D01*
X25799Y29301D01*
X26441Y29942D01*
X33500D01*
X34800D01*
X34887Y29959D01*
X34900Y29957D01*
X35169Y30010D01*
X35231Y30052D01*
X35468D01*
Y30269D01*
X35550Y30391D01*
X35603Y30660D01*
Y31638D01*
X35723Y31783D01*
X35825Y31975D01*
G37*
%LPD*%
G54D400*
X22525Y32505D03*
X21255D03*
Y27295D03*
X22525D03*
X23795D03*
X25065D03*
X26335D03*
X27605D03*
Y32505D03*
X26335D03*
X25065D03*
X23795D03*
X30145D03*
X28875D03*
Y27295D03*
X30145D03*
G54D401*
X31500Y25485D03*
Y27315D03*
G54D402*
X31650Y41505D03*
Y42775D03*
Y44045D03*
Y35155D03*
Y36425D03*
Y37695D03*
Y38965D03*
Y40235D03*
G54D200*
X21830Y25300D03*
X24370D03*
X27030D03*
X29570D03*
X34800D03*
Y32400D03*
G54D403*
X35550Y41935D03*
X33650D03*
X34600Y39465D03*
G54D201*
X22900Y46300D03*
X27980D03*
X25440D03*
X33060D03*
X30520D03*
X35600D03*
G54D404*
X34985Y44900D03*
X33415D03*
G54D405*
X32200Y30660D03*
Y29140D03*
X34800D03*
X33500D03*
X34800Y30660D03*
X33500D03*
G54D100*
X22300Y36800D02*
Y45700D01*
X23300Y37300D02*
Y41620D01*
X22800Y37200D02*
Y41700D01*
X21300Y32550D02*
Y46100D01*
X22300Y45700D02*
X22900Y46300D01*
X23300Y41620D02*
X27980Y46300D01*
X22800Y41700D02*
X25440Y44340D01*
X21300Y46100D02*
X21400Y46200D01*
X23200Y35900D02*
Y36800D01*
X22300D02*
X22500Y36600D01*
X22800Y37200D02*
X23200Y36800D01*
X23300Y37300D02*
X23900Y36700D01*
X22525Y32505D02*
Y33525D01*
X23900Y34900D01*
X27605Y32505D02*
Y33395D01*
X25000Y30500D02*
Y32440D01*
X23795Y32505D02*
Y33395D01*
X25065Y32505D02*
Y32965D01*
X23900Y34900D02*
Y36700D01*
X26800Y34700D02*
X28600D01*
X27000Y34000D02*
X27605Y33395D01*
X25000Y32440D02*
X25065Y32505D01*
X23795Y33395D02*
X27100Y36700D01*
X25065Y32965D02*
X26800Y34700D01*
X26335Y30635D02*
X26360Y30660D01*
X27100Y36700D02*
Y38700D01*
X27500Y41400D02*
X29600D01*
X26800Y40700D02*
X29000D01*
X26100Y40000D02*
X28400D01*
X25440Y44340D02*
Y46300D01*
X28200Y42100D02*
X30100D01*
X28900Y42800D02*
X31650D01*
X33060Y46300D02*
X33585D01*
X30520D02*
X31800D01*
X28900Y42800D02*
X28925Y42775D01*
X30100Y42100D02*
X30695Y41505D01*
X31800Y46300D02*
X33200Y44900D01*
X30100Y35500D02*
Y35600D01*
X30695Y41505D02*
X31650D01*
X30765Y40235D02*
X31650D01*
X30735Y38965D02*
X31650D01*
X30705Y37695D02*
X31650D01*
X29600Y41400D02*
X30765Y40235D01*
X29000Y40700D02*
X30735Y38965D01*
X28400Y40000D02*
X30705Y37695D01*
X28600Y34700D02*
X29800Y35900D01*
X28875Y32505D02*
Y33525D01*
X30145Y32505D02*
Y33155D01*
X28400Y34000D02*
X28875Y33525D01*
X28600Y34700D02*
X30145Y33155D01*
X33700Y43000D02*
Y43615D01*
X33200Y44900D02*
X33415D01*
X33585Y46300D02*
X34985Y44900D01*
X33700Y43615D02*
X34985Y44900D01*
G54D101*
X21255Y31645D02*
Y32505D01*
X23200Y29700D02*
X25400D01*
X21255Y31645D02*
X23200Y29700D01*
X25400D02*
X26335Y30635D01*
Y32505D01*
G54D102*
X35400Y33000D02*
Y38665D01*
X34900Y32500D02*
X35400Y33000D01*
X33650Y41935D02*
Y42950D01*
X34600Y39465D02*
X35400Y38665D01*
X33650Y42950D02*
X33700Y43000D01*
G54D103*
X28500Y37200D02*
Y37600D01*
Y37200D02*
X30545Y35155D01*
X31650D01*
G54D104*
X21255Y25875D02*
Y27295D01*
Y25875D02*
X21830Y25300D01*
X25065Y25995D02*
Y27295D01*
X26335Y25995D02*
Y27295D01*
Y25995D02*
X27030Y25300D01*
X24370D02*
X25065Y25995D01*
X30165Y27315D02*
X31500D01*
X29755Y25485D02*
X31500D01*
X30145Y27295D02*
X30165Y27315D01*
X29570Y25300D02*
X29755Y25485D01*
G54D105*
X26360Y30660D02*
X33500D01*
X34800D01*
X34900D02*
Y32500D01*
G54D202*
X21400Y46200D03*
X23200Y35900D03*
X22500Y36600D03*
X28400Y34000D03*
X27000D03*
X25000Y30600D03*
X23900Y34900D03*
X27500Y41400D03*
X26800Y40700D03*
X26100Y40000D03*
X27100Y38700D03*
X28200Y42100D03*
X28900Y42800D03*
X28500Y37600D03*
X33700Y43000D03*
G54D100*
M02*
