G04 Bottom_2 *
G04 Layout NRF24L01_MOTOR.pcb *
G04 Designed with PCB elegance 3.52 *
G04 *
G04 *
%FSLAX44Y44*%
%MOMM*%
G75*
G01*
%IPPOS*%
%ADD100C,0.2000*%
%ADD101C,0.4000*%
%ADD102C,0.6000*%
%ADD200C,1.8000*%
%ADD201C,1.1500*%
%ADD202C,0.6000*%
%ADD400R,1.5000X0.5700*%
%ADD401R,0.5700X1.5000*%
%ADD402R,0.6500X1.5100*%
%ADD403R,0.7000X0.8000*%
%ADD404R,1.2400X1.1400*%
%ADD405R,0.8100X0.9300*%
%ADD406R,0.6700X1.9700*%
%ADD407R,0.4700X1.9700*%
%ADD408R,0.7600X0.9300*%
%ADD409R,0.9300X0.7600*%
%ADD410R,0.9300X0.8100*%
%LPD*%G36*
X256032Y251584D02*
Y254200D01*
Y257368D01*
X256282D01*
Y276532D01*
X245718D01*
Y257368D01*
X245968D01*
Y250032D01*
X235433D01*
X224898D01*
X224885Y250165D01*
X224253Y252247D01*
X223228Y254166D01*
X221848Y255848D01*
X220166Y257228D01*
X218247Y258253D01*
X218182Y258273D01*
Y276532D01*
X207618D01*
Y257368D01*
X207834Y257228D01*
X206152Y255848D01*
X205000Y256260D01*
Y473000D01*
X362000D01*
Y239000D01*
X276032D01*
Y246154D01*
X277682Y247804D01*
X338200D01*
X338772Y246734D01*
X340152Y245052D01*
X341834Y243672D01*
X343753Y242647D01*
X345835Y242015D01*
X348000Y241802D01*
X350165Y242015D01*
X352247Y242647D01*
X354166Y243672D01*
X355848Y245052D01*
X357228Y246734D01*
X358253Y248653D01*
X358885Y250735D01*
X359098Y252900D01*
X358885Y255065D01*
X358253Y257147D01*
X357228Y259066D01*
X355848Y260748D01*
X354166Y262128D01*
X352247Y263153D01*
X350165Y263785D01*
X348000Y263998D01*
X345835Y263785D01*
X343753Y263153D01*
X341834Y262128D01*
X340152Y260748D01*
X338772Y259066D01*
X337747Y257147D01*
X337115Y255065D01*
X337010Y253996D01*
X279496D01*
Y257368D01*
X281682D01*
Y276532D01*
X279496D01*
Y279600D01*
X279260Y280785D01*
X278589Y281789D01*
X255012Y305366D01*
X255138Y306000D01*
X254747Y307966D01*
X253633Y309633D01*
X251966Y310747D01*
X250000Y311138D01*
X248034Y310747D01*
X246367Y309633D01*
X245253Y307966D01*
X244862Y306000D01*
X245253Y304034D01*
X246367Y302367D01*
X248034Y301253D01*
X250000Y300862D01*
X250634Y300988D01*
X273304Y278318D01*
Y276532D01*
X271118D01*
Y257368D01*
X273304D01*
Y252182D01*
X272154Y251032D01*
X264968D01*
Y239000D01*
X261032D01*
Y251032D01*
X256584D01*
X256308Y251308D01*
X256032Y251584D01*
G37*
%LPC*%G36*
X294382Y276532D02*
X283818D01*
Y257368D01*
X294382D01*
Y276532D01*
G37*
%LPC*%G36*
X243582Y276532D02*
X233018D01*
Y257368D01*
X243582D01*
Y276532D01*
G37*
%LPC*%G36*
X230882Y276532D02*
X220318D01*
Y257368D01*
X230882D01*
Y276532D01*
G37*
%LPC*%G36*
X218182Y330632D02*
X207618D01*
Y311468D01*
X218182D01*
Y330632D01*
G37*
%LPC*%G36*
X230882Y330632D02*
X220318D01*
Y311468D01*
X230882D01*
Y330632D01*
G37*
%LPC*%G36*
X243582Y330632D02*
X233018D01*
Y311468D01*
X243582D01*
Y330632D01*
G37*
%LPC*%G36*
X338772Y309866D02*
X340152Y311548D01*
X341834Y312928D01*
X343753Y313953D01*
X345835Y314585D01*
X348000Y314798D01*
X350165Y314585D01*
X352247Y313953D01*
X354166Y312928D01*
X355848Y311548D01*
X357228Y309866D01*
X358253Y307947D01*
X358885Y305865D01*
X359098Y303700D01*
X358885Y301535D01*
X358253Y299453D01*
X357228Y297534D01*
X355848Y295852D01*
X354166Y294472D01*
X352247Y293447D01*
X350165Y292815D01*
X348000Y292602D01*
X345835Y292815D01*
X343753Y293447D01*
X342464Y294136D01*
X341300Y293904D01*
X339717D01*
X338855Y291823D01*
X342692Y287986D01*
X343753Y288553D01*
X345835Y289185D01*
X348000Y289398D01*
X350165Y289185D01*
X352247Y288553D01*
X354166Y287528D01*
X355848Y286148D01*
X357228Y284466D01*
X358253Y282547D01*
X358885Y280465D01*
X359098Y278300D01*
X358885Y276135D01*
X358253Y274053D01*
X357228Y272134D01*
X355848Y270452D01*
X354166Y269072D01*
X352247Y268047D01*
X350165Y267415D01*
X348000Y267202D01*
X345835Y267415D01*
X343753Y268047D01*
X341834Y269072D01*
X340152Y270452D01*
X338772Y272134D01*
X337747Y274053D01*
X337115Y276135D01*
X336902Y278300D01*
X337115Y280465D01*
X337747Y282547D01*
X338314Y283608D01*
X333018Y288904D01*
X289000D01*
X287815Y289140D01*
X286811Y289811D01*
X265154Y311468D01*
X258418D01*
Y330632D01*
X268982D01*
Y316396D01*
X271118Y317281D01*
Y330632D01*
X281682D01*
Y311468D01*
X281163Y310215D01*
X285389Y305989D01*
X291282Y300096D01*
X337552D01*
X337115Y301535D01*
X336902Y303700D01*
X337115Y305865D01*
X337747Y307947D01*
X338772Y309866D01*
G37*
%LPC*%G36*
X293868Y330632D02*
X283818D01*
Y311468D01*
X294382D01*
Y317168D01*
X310332D01*
Y332632D01*
X293868D01*
Y330632D01*
G37*
%LPC*%G36*
X322655Y463000D02*
X323259Y459959D01*
X324982Y457382D01*
X327559Y455659D01*
X330600Y455055D01*
X333641Y455659D01*
X336218Y457382D01*
X337941Y459959D01*
X338545Y463000D01*
X337941Y466041D01*
X336218Y468618D01*
X333641Y470341D01*
X330600Y470945D01*
X327559Y470341D01*
X324982Y468618D01*
X323259Y466041D01*
X322655Y463000D01*
G37*
%LPC*%G36*
X246455Y463000D02*
X247059Y459959D01*
X248782Y457382D01*
X251359Y455659D01*
X254400Y455055D01*
X257441Y455659D01*
X260018Y457382D01*
X261741Y459959D01*
X262345Y463000D01*
X261741Y466041D01*
X260018Y468618D01*
X257441Y470341D01*
X254400Y470945D01*
X251359Y470341D01*
X248782Y468618D01*
X247059Y466041D01*
X246455Y463000D01*
G37*
%LPC*%G36*
X221055Y463000D02*
X221659Y459959D01*
X223382Y457382D01*
X225959Y455659D01*
X229000Y455055D01*
X232041Y455659D01*
X234618Y457382D01*
X236341Y459959D01*
X236945Y463000D01*
X236341Y466041D01*
X234618Y468618D01*
X232041Y470341D01*
X229000Y470945D01*
X225959Y470341D01*
X223382Y468618D01*
X221659Y466041D01*
X221055Y463000D01*
G37*
%LPC*%G36*
X324018Y454682D02*
X335682D01*
X345982D01*
Y441318D01*
X335682D01*
X324018D01*
Y454682D01*
G37*
%LPC*%G36*
X210367Y465633D02*
X209253Y463966D01*
X208862Y462000D01*
X209253Y460034D01*
X210157Y458682D01*
X207318D01*
Y447018D01*
X220682D01*
Y458682D01*
X217843D01*
X218747Y460034D01*
X219138Y462000D01*
X218747Y463966D01*
X217633Y465633D01*
X215966Y466747D01*
X214000Y467138D01*
X212034Y466747D01*
X210367Y465633D01*
G37*
%LPC*%G36*
X299000Y394117D02*
X297425Y393803D01*
X296089Y392911D01*
X284146Y380968D01*
X283034Y380747D01*
X281367Y379633D01*
X280253Y377966D01*
X279862Y376000D01*
X279988Y375366D01*
X279718Y375096D01*
X252282D01*
X243189Y384189D01*
X242232Y384828D01*
Y385118D01*
Y393118D01*
Y402882D01*
X224236D01*
X224860Y403815D01*
X225096Y405000D01*
Y409118D01*
X242232D01*
Y417118D01*
Y418904D01*
X245718D01*
X251811Y412811D01*
X257904Y406718D01*
Y403992D01*
X257367Y403633D01*
X256253Y401966D01*
X255862Y400000D01*
X256253Y398034D01*
X257367Y396367D01*
X259034Y395253D01*
X261000Y394862D01*
X262966Y395253D01*
X264633Y396367D01*
X265747Y398034D01*
X266138Y400000D01*
X265747Y401966D01*
X266034Y402253D01*
X268000Y401862D01*
X269966Y402253D01*
X271633Y403367D01*
X272747Y405034D01*
X273138Y407000D01*
X272747Y408966D01*
X273034Y409253D01*
X275000Y408862D01*
X276966Y409253D01*
X278633Y410367D01*
X279747Y412034D01*
X280138Y414000D01*
X279747Y415966D01*
X280034Y416253D01*
X282000Y415862D01*
X283966Y416253D01*
X285633Y417367D01*
X286747Y419034D01*
X287138Y421000D01*
X286747Y422966D01*
X287034Y423253D01*
X289000Y422862D01*
X290966Y423253D01*
X292633Y424367D01*
X293747Y426034D01*
X294138Y428000D01*
X293747Y429966D01*
X292633Y431633D01*
X290966Y432747D01*
X289000Y433138D01*
X287034Y432747D01*
X285367Y431633D01*
X285008Y431096D01*
X270282D01*
X269691Y431687D01*
X270553Y433768D01*
X273118D01*
X281118D01*
X289118D01*
X297118D01*
X305768D01*
Y432828D01*
X304811Y432189D01*
X268811Y396189D01*
X268140Y395185D01*
X267904Y394000D01*
Y390992D01*
X267367Y390633D01*
X266253Y388966D01*
X265862Y387000D01*
X266253Y385034D01*
X267367Y383367D01*
X269034Y382253D01*
X271000Y381862D01*
X272966Y382253D01*
X274633Y383367D01*
X275747Y385034D01*
X276138Y387000D01*
X275747Y388966D01*
X274633Y390633D01*
X274096Y390992D01*
Y392718D01*
X303687Y422309D01*
X305768Y421447D01*
Y417118D01*
X324832D01*
Y426882D01*
Y434882D01*
X306882D01*
Y443804D01*
X307982Y444904D01*
X308318D01*
Y441318D01*
X319982D01*
Y454682D01*
X308318D01*
Y451096D01*
X306882D01*
Y452832D01*
X302353D01*
X301491Y454913D01*
X302224Y455646D01*
X305200Y455055D01*
X308241Y455659D01*
X310818Y457382D01*
X312541Y459959D01*
X313145Y463000D01*
X312541Y466041D01*
X310818Y468618D01*
X308241Y470341D01*
X305200Y470945D01*
X302159Y470341D01*
X299582Y468618D01*
X297859Y466041D01*
X297255Y463000D01*
X297846Y460024D01*
X294918Y457096D01*
X285505D01*
X285418Y457382D01*
X287141Y459959D01*
X287745Y463000D01*
X287141Y466041D01*
X285418Y468618D01*
X282841Y470341D01*
X279800Y470945D01*
X276759Y470341D01*
X274182Y468618D01*
X272459Y466041D01*
X271855Y463000D01*
X272459Y459959D01*
X274182Y457382D01*
X276759Y455659D01*
X277195Y455573D01*
X275811Y454189D01*
X275140Y453185D01*
X275070Y452832D01*
X273118D01*
X265118D01*
X257118D01*
X249118D01*
X241118D01*
Y434882D01*
X223168D01*
Y425118D01*
Y424576D01*
X220682Y423546D01*
Y432682D01*
Y442982D01*
X207318D01*
Y432682D01*
Y421018D01*
X214454D01*
X218904Y416568D01*
Y414000D01*
Y406682D01*
X207318D01*
Y394518D01*
X218904D01*
Y380682D01*
X207318D01*
Y368518D01*
X220622D01*
X220253Y367966D01*
X219862Y366000D01*
X220253Y364034D01*
X221367Y362367D01*
X223034Y361253D01*
X225000Y360862D01*
X226966Y361253D01*
X227253Y360966D01*
X226862Y359000D01*
X227253Y357034D01*
X228367Y355367D01*
X230034Y354253D01*
X232000Y353862D01*
X233966Y354253D01*
X235633Y355367D01*
X235992Y355904D01*
X241118D01*
Y353645D01*
X240966Y353747D01*
X239000Y354138D01*
X237034Y353747D01*
X235367Y352633D01*
X234253Y350966D01*
X233862Y349000D01*
X234253Y347034D01*
X235367Y345367D01*
X237034Y344253D01*
X239000Y343862D01*
X240966Y344253D01*
X242633Y345367D01*
X242992Y345904D01*
X251000D01*
X252185Y346140D01*
X253189Y346811D01*
X256189Y349811D01*
X256860Y350815D01*
X256930Y351168D01*
X258882D01*
X258904D01*
Y348000D01*
X259140Y346815D01*
X259811Y345811D01*
X264988Y340634D01*
X264862Y340000D01*
X265253Y338034D01*
X266367Y336367D01*
X268034Y335253D01*
X270000Y334862D01*
X271966Y335253D01*
X273633Y336367D01*
X274747Y338034D01*
X275138Y340000D01*
X274747Y341966D01*
X273633Y343633D01*
X271966Y344747D01*
X270000Y345138D01*
X269366Y345012D01*
X265096Y349282D01*
Y351168D01*
X266882D01*
X267070D01*
X267140Y350815D01*
X267811Y349811D01*
X271811Y345811D01*
X272815Y345140D01*
X274000Y344904D01*
X274718D01*
X278988Y340634D01*
X278862Y340000D01*
X279253Y338034D01*
X280367Y336367D01*
X282034Y335253D01*
X284000Y334862D01*
X285966Y335253D01*
X287633Y336367D01*
X288747Y338034D01*
X289138Y340000D01*
X288747Y341966D01*
X287633Y343633D01*
X285966Y344747D01*
X284000Y345138D01*
X283366Y345012D01*
X278189Y350189D01*
X277185Y350860D01*
X276000Y351096D01*
X275282D01*
X275312Y351168D01*
X282882D01*
X290882D01*
X298882D01*
X306882D01*
Y369118D01*
X310119D01*
Y346118D01*
X320884D01*
Y369118D01*
X324832D01*
Y373847D01*
X326913Y374709D01*
X331406Y370216D01*
Y369882D01*
X329119D01*
Y346118D01*
X339884D01*
Y369882D01*
X337597D01*
Y371498D01*
X337362Y372683D01*
X336690Y373687D01*
X326189Y384189D01*
X325185Y384860D01*
X324832Y384930D01*
Y385883D01*
X331318D01*
Y383318D01*
X343482D01*
Y396682D01*
X341517D01*
Y399318D01*
X343482D01*
Y412682D01*
X341517D01*
Y427690D01*
X341747Y428034D01*
X342138Y430000D01*
X341747Y431966D01*
X340633Y433633D01*
X338966Y434747D01*
X337000Y435138D01*
X335034Y434747D01*
X333367Y433633D01*
X332253Y431966D01*
X331862Y430000D01*
X332253Y428034D01*
X333283Y426492D01*
Y412682D01*
X331318D01*
Y409096D01*
X324832D01*
Y410882D01*
X305768D01*
Y401118D01*
X324832D01*
Y402904D01*
X331318D01*
Y399318D01*
X333283D01*
Y396682D01*
X331318D01*
Y394117D01*
X324832D01*
Y394882D01*
X305768D01*
Y394117D01*
X299000D01*
G37*
%LPD*%
G54D400*
X232700Y414000D03*
Y422000D03*
Y430000D03*
Y374000D03*
Y382000D03*
Y390000D03*
Y398000D03*
Y406000D03*
X315300Y430000D03*
Y422000D03*
Y414000D03*
Y406000D03*
Y398000D03*
Y390000D03*
Y382000D03*
Y374000D03*
G54D401*
X278000Y360700D03*
X270000D03*
X262000D03*
X254000D03*
X246000D03*
Y443300D03*
X254000D03*
X262000D03*
X270000D03*
X278000D03*
X286000D03*
X294000D03*
X302000D03*
Y360700D03*
X294000D03*
X286000D03*
G54D200*
X214000Y248000D03*
X348000Y252900D03*
Y278300D03*
Y303700D03*
Y329100D03*
G54D402*
X212900Y321050D03*
X225600D03*
Y266950D03*
X212900D03*
X276400D03*
X263700D03*
X251000D03*
X238300D03*
Y321050D03*
X251000D03*
X263700D03*
X276400D03*
X289100D03*
Y266950D03*
G54D403*
X270500Y245000D03*
X255500D03*
G54D404*
X302100Y324900D03*
X325900D03*
Y307100D03*
X302100D03*
G54D405*
X337400Y390000D03*
X352600D03*
X337400Y406000D03*
X352600D03*
G54D406*
X315502Y358000D03*
X334502D03*
G54D407*
X325001D03*
G54D201*
X229000Y463000D03*
X279800D03*
X254400D03*
X330600D03*
X305200D03*
X356000D03*
G54D408*
X329850Y448000D03*
X314150D03*
X355850D03*
X340150D03*
G54D409*
X214000Y452850D03*
Y437150D03*
Y426850D03*
Y411150D03*
G54D410*
Y400600D03*
Y385400D03*
Y374600D03*
Y359400D03*
G54D100*
Y452850D02*
Y462000D01*
Y425850D02*
Y437150D01*
X222000Y405000D02*
Y417850D01*
X232700Y430000D02*
X245000D01*
X232700Y422000D02*
X247000D01*
X214000Y425850D02*
X222000Y417850D01*
X225000Y366000D02*
Y366300D01*
X222000Y379000D02*
Y397000D01*
X232700Y382000D02*
X241000D01*
X232000Y359000D02*
X244300D01*
X222000Y414000D02*
X232700D01*
X223000Y398000D02*
X232700D01*
X214000Y374600D02*
X217600D01*
X214000Y400600D02*
X217600D01*
X225000Y366300D02*
X232700Y374000D01*
X222000Y397000D02*
X223000Y398000D01*
X217600Y374600D02*
X222000Y379000D01*
X217600Y400600D02*
X222000Y405000D01*
X276400Y250900D02*
Y279600D01*
Y250900D02*
X346000D01*
X250000Y306000D02*
X276400Y279600D01*
X263700Y317300D02*
X289000Y292000D01*
X270500Y245000D02*
X276400Y250900D01*
X254000Y352000D02*
Y360700D01*
X262000Y348000D02*
Y360700D01*
X270000Y352000D02*
Y360700D01*
X263700Y317300D02*
Y321050D01*
X276400Y310600D02*
Y321050D01*
X239000Y349000D02*
X251000D01*
X274000Y348000D02*
X276000D01*
X284000Y340000D01*
X262000Y348000D02*
X270000Y340000D01*
Y352000D02*
X274000Y348000D01*
X276400Y310600D02*
X290000Y297000D01*
X251000Y349000D02*
X254000Y352000D01*
X271000Y387000D02*
Y394000D01*
X261000Y400000D02*
Y408000D01*
X251000Y372000D02*
X281000D01*
X267000Y414000D02*
X275000D01*
X241000Y382000D02*
X251000Y372000D01*
X246000Y435000D02*
X267000Y414000D01*
X245000Y430000D02*
X268000Y407000D01*
X247000Y422000D02*
X261000Y408000D01*
X271000Y394000D02*
X307000Y430000D01*
X244300Y359000D02*
X246000Y360700D01*
X281000Y372000D02*
X285000Y376000D01*
X262000Y435000D02*
Y443300D01*
X254000Y435000D02*
Y443300D01*
X246000Y435000D02*
Y443300D01*
X278000D02*
Y452000D01*
X269000Y428000D02*
X289000D01*
X268000Y421000D02*
X282000D01*
X280000Y454000D02*
X296200D01*
X262000Y435000D02*
X269000Y428000D01*
X254000Y435000D02*
X268000Y421000D01*
X278000Y452000D02*
X280000Y454000D01*
X307000Y430000D02*
X315300D01*
X329850Y448000D02*
X340150D01*
X306700D02*
X314150D01*
X296200Y454000D02*
X305200Y463000D01*
X302000Y443300D02*
X306700Y448000D01*
X315502Y358000D02*
Y373799D01*
X315300Y382000D02*
X324000D01*
X315300Y406000D02*
X337400D01*
X315300Y374000D02*
X315502Y373799D01*
X324000Y382000D02*
X334502Y371499D01*
X292950Y324900D02*
X302100D01*
X290000Y297000D02*
X341300D01*
X289100Y321050D02*
X292950Y324900D01*
X289000Y292000D02*
X334300D01*
X348000Y278300D01*
X346000Y250900D02*
X348000Y252900D01*
X341300Y297000D02*
X348000Y303700D01*
X334502Y358000D02*
Y371499D01*
X337000Y430000D02*
X337400Y429600D01*
G54D101*
X299000Y390000D02*
X337400D01*
X285000Y376000D02*
X299000Y390000D01*
X337400D02*
Y429600D01*
X337000Y430000D02*
X337400Y429600D01*
G54D102*
X217000Y245000D02*
X255500D01*
X214000Y248000D02*
X217000Y245000D01*
X251000Y249500D02*
Y266950D01*
Y249500D02*
X255500Y245000D01*
G54D202*
X214000Y462000D03*
X232000Y359000D03*
X225000Y366000D03*
X284000Y340000D03*
X270000D03*
X250000Y306000D03*
X239000Y349000D03*
X275000Y414000D03*
X268000Y407000D03*
X261000Y400000D03*
X271000Y387000D03*
X282000Y421000D03*
X289000Y428000D03*
X285000Y376000D03*
X337000Y430000D03*
G54D100*
M02*
