G04 Bottom_2 *
G04 Layout NRF24L01_MOTOR.pcb *
G04 Designed with PCB elegance 3.52 *
G04 *
G04 *
%FSLAX42Y42*%
%MOMM*%
G75*
G01*
%IPPOS*%
%ADD100C,0.2000*%
%ADD101C,0.4000*%
%ADD102C,0.6000*%
%ADD200C,1.8000*%
%ADD201C,1.1500*%
%ADD202C,0.6000*%
%ADD400R,1.5000X0.5700*%
%ADD401R,0.5700X1.5000*%
%ADD402R,0.6500X1.5100*%
%ADD403R,0.7000X0.8000*%
%ADD404R,1.2400X1.1400*%
%ADD405R,0.8100X0.9300*%
%ADD406R,0.6700X1.9700*%
%ADD407R,0.4700X1.9700*%
%ADD408R,0.7600X0.9300*%
%ADD409R,0.9300X0.7600*%
%ADD410R,0.9300X0.8100*%
%LPD*%G36*
X2560Y2516D02*
Y2542D01*
Y2574D01*
X2563D01*
Y2765D01*
X2457D01*
Y2574D01*
X2460D01*
Y2500D01*
X2354D01*
X2249D01*
X2249Y2502D01*
X2243Y2522D01*
X2232Y2542D01*
X2218Y2558D01*
X2202Y2572D01*
X2182Y2583D01*
X2182Y2583D01*
Y2765D01*
X2076D01*
Y2574D01*
X2078Y2572D01*
X2062Y2558D01*
X2050Y2563D01*
Y4730D01*
X3620D01*
Y2390D01*
X2760D01*
Y2462D01*
X2777Y2478D01*
X3382D01*
X3388Y2467D01*
X3402Y2451D01*
X3418Y2437D01*
X3438Y2426D01*
X3458Y2420D01*
X3480Y2418D01*
X3502Y2420D01*
X3522Y2426D01*
X3542Y2437D01*
X3558Y2451D01*
X3572Y2467D01*
X3583Y2487D01*
X3589Y2507D01*
X3591Y2529D01*
X3589Y2551D01*
X3583Y2571D01*
X3572Y2591D01*
X3558Y2607D01*
X3542Y2621D01*
X3522Y2632D01*
X3502Y2638D01*
X3480Y2640D01*
X3458Y2638D01*
X3438Y2632D01*
X3418Y2621D01*
X3402Y2607D01*
X3388Y2591D01*
X3377Y2571D01*
X3371Y2551D01*
X3370Y2540D01*
X2795D01*
Y2574D01*
X2817D01*
Y2765D01*
X2795D01*
Y2796D01*
X2793Y2808D01*
X2786Y2818D01*
X2550Y3054D01*
X2551Y3060D01*
X2547Y3080D01*
X2536Y3096D01*
X2520Y3107D01*
X2500Y3111D01*
X2480Y3107D01*
X2464Y3096D01*
X2453Y3080D01*
X2449Y3060D01*
X2453Y3040D01*
X2464Y3024D01*
X2480Y3013D01*
X2500Y3009D01*
X2506Y3010D01*
X2733Y2783D01*
Y2765D01*
X2711D01*
Y2574D01*
X2733D01*
Y2522D01*
X2722Y2510D01*
X2650D01*
Y2390D01*
X2610D01*
Y2510D01*
X2566D01*
X2563Y2513D01*
X2560Y2516D01*
G37*
%LPC*%G36*
X2944Y2765D02*
X2838D01*
Y2574D01*
X2944D01*
Y2765D01*
G37*
%LPC*%G36*
X2436Y2765D02*
X2330D01*
Y2574D01*
X2436D01*
Y2765D01*
G37*
%LPC*%G36*
X2309Y2765D02*
X2203D01*
Y2574D01*
X2309D01*
Y2765D01*
G37*
%LPC*%G36*
X2182Y3306D02*
X2076D01*
Y3115D01*
X2182D01*
Y3306D01*
G37*
%LPC*%G36*
X2309Y3306D02*
X2203D01*
Y3115D01*
X2309D01*
Y3306D01*
G37*
%LPC*%G36*
X2436Y3306D02*
X2330D01*
Y3115D01*
X2436D01*
Y3306D01*
G37*
%LPC*%G36*
X3388Y3099D02*
X3402Y3115D01*
X3418Y3129D01*
X3438Y3140D01*
X3458Y3146D01*
X3480Y3148D01*
X3502Y3146D01*
X3522Y3140D01*
X3542Y3129D01*
X3558Y3115D01*
X3572Y3099D01*
X3583Y3079D01*
X3589Y3059D01*
X3591Y3037D01*
X3589Y3015D01*
X3583Y2995D01*
X3572Y2975D01*
X3558Y2959D01*
X3542Y2945D01*
X3522Y2934D01*
X3502Y2928D01*
X3480Y2926D01*
X3458Y2928D01*
X3438Y2934D01*
X3425Y2941D01*
X3413Y2939D01*
X3397D01*
X3389Y2918D01*
X3427Y2880D01*
X3438Y2886D01*
X3458Y2892D01*
X3480Y2894D01*
X3502Y2892D01*
X3522Y2886D01*
X3542Y2875D01*
X3558Y2861D01*
X3572Y2845D01*
X3583Y2825D01*
X3589Y2805D01*
X3591Y2783D01*
X3589Y2761D01*
X3583Y2741D01*
X3572Y2721D01*
X3558Y2705D01*
X3542Y2691D01*
X3522Y2680D01*
X3502Y2674D01*
X3480Y2672D01*
X3458Y2674D01*
X3438Y2680D01*
X3418Y2691D01*
X3402Y2705D01*
X3388Y2721D01*
X3377Y2741D01*
X3371Y2761D01*
X3369Y2783D01*
X3371Y2805D01*
X3377Y2825D01*
X3383Y2836D01*
X3330Y2889D01*
X2890D01*
X2878Y2891D01*
X2868Y2898D01*
X2652Y3115D01*
X2584D01*
Y3306D01*
X2690D01*
Y3164D01*
X2711Y3173D01*
Y3306D01*
X2817D01*
Y3115D01*
X2812Y3102D01*
X2854Y3060D01*
X2913Y3001D01*
X3376D01*
X3371Y3015D01*
X3369Y3037D01*
X3371Y3059D01*
X3377Y3079D01*
X3388Y3099D01*
G37*
%LPC*%G36*
X2939Y3306D02*
X2838D01*
Y3115D01*
X2944D01*
Y3172D01*
X3103D01*
Y3326D01*
X2939D01*
Y3306D01*
G37*
%LPC*%G36*
X3227Y4630D02*
X3233Y4600D01*
X3250Y4574D01*
X3276Y4557D01*
X3306Y4551D01*
X3336Y4557D01*
X3362Y4574D01*
X3379Y4600D01*
X3385Y4630D01*
X3379Y4660D01*
X3362Y4686D01*
X3336Y4703D01*
X3306Y4709D01*
X3276Y4703D01*
X3250Y4686D01*
X3233Y4660D01*
X3227Y4630D01*
G37*
%LPC*%G36*
X2465Y4630D02*
X2471Y4600D01*
X2488Y4574D01*
X2514Y4557D01*
X2544Y4551D01*
X2574Y4557D01*
X2600Y4574D01*
X2617Y4600D01*
X2623Y4630D01*
X2617Y4660D01*
X2600Y4686D01*
X2574Y4703D01*
X2544Y4709D01*
X2514Y4703D01*
X2488Y4686D01*
X2471Y4660D01*
X2465Y4630D01*
G37*
%LPC*%G36*
X2211Y4630D02*
X2217Y4600D01*
X2234Y4574D01*
X2260Y4557D01*
X2290Y4551D01*
X2320Y4557D01*
X2346Y4574D01*
X2363Y4600D01*
X2369Y4630D01*
X2363Y4660D01*
X2346Y4686D01*
X2320Y4703D01*
X2290Y4709D01*
X2260Y4703D01*
X2234Y4686D01*
X2217Y4660D01*
X2211Y4630D01*
G37*
%LPC*%G36*
X3240Y4547D02*
X3357D01*
X3460D01*
Y4413D01*
X3357D01*
X3240D01*
Y4547D01*
G37*
%LPC*%G36*
X2104Y4656D02*
X2093Y4640D01*
X2089Y4620D01*
X2093Y4600D01*
X2102Y4587D01*
X2073D01*
Y4470D01*
X2207D01*
Y4587D01*
X2178D01*
X2187Y4600D01*
X2191Y4620D01*
X2187Y4640D01*
X2176Y4656D01*
X2160Y4667D01*
X2140Y4671D01*
X2120Y4667D01*
X2104Y4656D01*
G37*
%LPC*%G36*
X2990Y3941D02*
X2974Y3938D01*
X2961Y3929D01*
X2841Y3810D01*
X2830Y3807D01*
X2814Y3796D01*
X2803Y3780D01*
X2799Y3760D01*
X2800Y3754D01*
X2797Y3751D01*
X2523D01*
X2432Y3842D01*
X2422Y3848D01*
Y3851D01*
Y3931D01*
Y4029D01*
X2242D01*
X2249Y4038D01*
X2251Y4050D01*
Y4091D01*
X2422D01*
Y4171D01*
Y4189D01*
X2457D01*
X2518Y4128D01*
X2579Y4067D01*
Y4040D01*
X2574Y4036D01*
X2563Y4020D01*
X2559Y4000D01*
X2563Y3980D01*
X2574Y3964D01*
X2590Y3953D01*
X2610Y3949D01*
X2630Y3953D01*
X2646Y3964D01*
X2657Y3980D01*
X2661Y4000D01*
X2657Y4020D01*
X2660Y4023D01*
X2680Y4019D01*
X2700Y4023D01*
X2716Y4034D01*
X2727Y4050D01*
X2731Y4070D01*
X2727Y4090D01*
X2730Y4093D01*
X2750Y4089D01*
X2770Y4093D01*
X2786Y4104D01*
X2797Y4120D01*
X2801Y4140D01*
X2797Y4160D01*
X2800Y4163D01*
X2820Y4159D01*
X2840Y4163D01*
X2856Y4174D01*
X2867Y4190D01*
X2871Y4210D01*
X2867Y4230D01*
X2870Y4233D01*
X2890Y4229D01*
X2910Y4233D01*
X2926Y4244D01*
X2937Y4260D01*
X2941Y4280D01*
X2937Y4300D01*
X2926Y4316D01*
X2910Y4327D01*
X2890Y4331D01*
X2870Y4327D01*
X2854Y4316D01*
X2850Y4311D01*
X2703D01*
X2697Y4317D01*
X2706Y4338D01*
X2731D01*
X2811D01*
X2891D01*
X2971D01*
X3058D01*
Y4328D01*
X3048Y4322D01*
X2688Y3962D01*
X2681Y3952D01*
X2679Y3940D01*
Y3910D01*
X2674Y3906D01*
X2663Y3890D01*
X2659Y3870D01*
X2663Y3850D01*
X2674Y3834D01*
X2690Y3823D01*
X2710Y3819D01*
X2730Y3823D01*
X2746Y3834D01*
X2757Y3850D01*
X2761Y3870D01*
X2757Y3890D01*
X2746Y3906D01*
X2741Y3910D01*
Y3927D01*
X3037Y4223D01*
X3058Y4214D01*
Y4171D01*
X3248D01*
Y4269D01*
Y4349D01*
X3069D01*
Y4438D01*
X3080Y4449D01*
X3083D01*
Y4413D01*
X3200D01*
Y4547D01*
X3083D01*
Y4511D01*
X3069D01*
Y4528D01*
X3024D01*
X3015Y4549D01*
X3022Y4556D01*
X3052Y4551D01*
X3082Y4557D01*
X3108Y4574D01*
X3125Y4600D01*
X3131Y4630D01*
X3125Y4660D01*
X3108Y4686D01*
X3082Y4703D01*
X3052Y4709D01*
X3022Y4703D01*
X2996Y4686D01*
X2979Y4660D01*
X2973Y4630D01*
X2978Y4600D01*
X2949Y4571D01*
X2855D01*
X2854Y4574D01*
X2871Y4600D01*
X2877Y4630D01*
X2871Y4660D01*
X2854Y4686D01*
X2828Y4703D01*
X2798Y4709D01*
X2768Y4703D01*
X2742Y4686D01*
X2725Y4660D01*
X2719Y4630D01*
X2725Y4600D01*
X2742Y4574D01*
X2768Y4557D01*
X2772Y4556D01*
X2758Y4542D01*
X2751Y4532D01*
X2751Y4528D01*
X2731D01*
X2651D01*
X2571D01*
X2491D01*
X2411D01*
Y4349D01*
X2232D01*
Y4251D01*
Y4246D01*
X2207Y4235D01*
Y4327D01*
Y4430D01*
X2073D01*
Y4327D01*
Y4210D01*
X2145D01*
X2189Y4166D01*
Y4140D01*
Y4067D01*
X2073D01*
Y3945D01*
X2189D01*
Y3807D01*
X2073D01*
Y3685D01*
X2206D01*
X2203Y3680D01*
X2199Y3660D01*
X2203Y3640D01*
X2214Y3624D01*
X2230Y3613D01*
X2250Y3609D01*
X2270Y3613D01*
X2273Y3610D01*
X2269Y3590D01*
X2273Y3570D01*
X2284Y3554D01*
X2300Y3543D01*
X2320Y3539D01*
X2340Y3543D01*
X2356Y3554D01*
X2360Y3559D01*
X2411D01*
Y3536D01*
X2410Y3537D01*
X2390Y3541D01*
X2370Y3537D01*
X2354Y3526D01*
X2343Y3510D01*
X2339Y3490D01*
X2343Y3470D01*
X2354Y3454D01*
X2370Y3443D01*
X2390Y3439D01*
X2410Y3443D01*
X2426Y3454D01*
X2430Y3459D01*
X2510D01*
X2522Y3461D01*
X2532Y3468D01*
X2562Y3498D01*
X2569Y3508D01*
X2569Y3512D01*
X2589D01*
X2589D01*
Y3480D01*
X2591Y3468D01*
X2598Y3458D01*
X2650Y3406D01*
X2649Y3400D01*
X2653Y3380D01*
X2664Y3364D01*
X2680Y3353D01*
X2700Y3349D01*
X2720Y3353D01*
X2736Y3364D01*
X2747Y3380D01*
X2751Y3400D01*
X2747Y3420D01*
X2736Y3436D01*
X2720Y3447D01*
X2700Y3451D01*
X2694Y3450D01*
X2651Y3493D01*
Y3512D01*
X2669D01*
X2671D01*
X2671Y3508D01*
X2678Y3498D01*
X2718Y3458D01*
X2728Y3451D01*
X2740Y3449D01*
X2747D01*
X2790Y3406D01*
X2789Y3400D01*
X2793Y3380D01*
X2804Y3364D01*
X2820Y3353D01*
X2840Y3349D01*
X2860Y3353D01*
X2876Y3364D01*
X2887Y3380D01*
X2891Y3400D01*
X2887Y3420D01*
X2876Y3436D01*
X2860Y3447D01*
X2840Y3451D01*
X2834Y3450D01*
X2782Y3502D01*
X2772Y3509D01*
X2760Y3511D01*
X2753D01*
X2753Y3512D01*
X2829D01*
X2909D01*
X2989D01*
X3069D01*
Y3691D01*
X3101D01*
Y3461D01*
X3209D01*
Y3691D01*
X3248D01*
Y3738D01*
X3269Y3747D01*
X3314Y3702D01*
Y3699D01*
X3291D01*
Y3461D01*
X3399D01*
Y3699D01*
X3376D01*
Y3715D01*
X3374Y3727D01*
X3367Y3737D01*
X3262Y3842D01*
X3252Y3849D01*
X3248Y3849D01*
Y3859D01*
X3313D01*
Y3833D01*
X3435D01*
Y3967D01*
X3415D01*
Y3993D01*
X3435D01*
Y4127D01*
X3415D01*
Y4277D01*
X3417Y4280D01*
X3421Y4300D01*
X3417Y4320D01*
X3406Y4336D01*
X3390Y4347D01*
X3370Y4351D01*
X3350Y4347D01*
X3334Y4336D01*
X3323Y4320D01*
X3319Y4300D01*
X3323Y4280D01*
X3333Y4265D01*
Y4127D01*
X3313D01*
Y4091D01*
X3248D01*
Y4109D01*
X3058D01*
Y4011D01*
X3248D01*
Y4029D01*
X3313D01*
Y3993D01*
X3333D01*
Y3967D01*
X3313D01*
Y3941D01*
X3248D01*
Y3949D01*
X3058D01*
Y3941D01*
X2990D01*
G37*
%LPD*%
G54D400*
X2327Y4140D03*
Y4220D03*
Y4300D03*
Y3740D03*
Y3820D03*
Y3900D03*
Y3980D03*
Y4060D03*
X3153Y4300D03*
Y4220D03*
Y4140D03*
Y4060D03*
Y3980D03*
Y3900D03*
Y3820D03*
Y3740D03*
G54D401*
X2780Y3607D03*
X2700D03*
X2620D03*
X2540D03*
X2460D03*
Y4433D03*
X2540D03*
X2620D03*
X2700D03*
X2780D03*
X2860D03*
X2940D03*
X3020D03*
Y3607D03*
X2940D03*
X2860D03*
G54D200*
X2140Y2480D03*
X3480Y2529D03*
Y2783D03*
Y3037D03*
Y3291D03*
G54D402*
X2129Y3211D03*
X2256D03*
Y2670D03*
X2129D03*
X2764D03*
X2637D03*
X2510D03*
X2383D03*
Y3211D03*
X2510D03*
X2637D03*
X2764D03*
X2891D03*
Y2670D03*
G54D403*
X2705Y2450D03*
X2555D03*
G54D404*
X3021Y3249D03*
X3259D03*
Y3071D03*
X3021D03*
G54D405*
X3374Y3900D03*
X3526D03*
X3374Y4060D03*
X3526D03*
G54D406*
X3155Y3580D03*
X3345D03*
G54D407*
X3250D03*
G54D201*
X2290Y4630D03*
X2798D03*
X2544D03*
X3306D03*
X3052D03*
X3560D03*
G54D408*
X3299Y4480D03*
X3142D03*
X3559D03*
X3402D03*
G54D409*
X2140Y4529D03*
Y4372D03*
Y4269D03*
Y4112D03*
G54D410*
Y4006D03*
Y3854D03*
Y3746D03*
Y3594D03*
G54D100*
Y4529D02*
Y4620D01*
Y4259D02*
Y4372D01*
X2220Y4050D02*
Y4179D01*
X2327Y4300D02*
X2450D01*
X2327Y4220D02*
X2470D01*
X2140Y4259D02*
X2220Y4179D01*
X2250Y3660D02*
Y3663D01*
X2220Y3790D02*
Y3970D01*
X2327Y3820D02*
X2410D01*
X2320Y3590D02*
X2443D01*
X2220Y4140D02*
X2327D01*
X2230Y3980D02*
X2327D01*
X2140Y3746D02*
X2176D01*
X2140Y4006D02*
X2176D01*
X2250Y3663D02*
X2327Y3740D01*
X2220Y3970D02*
X2230Y3980D01*
X2176Y3746D02*
X2220Y3790D01*
X2176Y4006D02*
X2220Y4050D01*
X2764Y2509D02*
Y2796D01*
Y2509D02*
X3460D01*
X2500Y3060D02*
X2764Y2796D01*
X2637Y3173D02*
X2890Y2920D01*
X2705Y2450D02*
X2764Y2509D01*
X2540Y3520D02*
Y3607D01*
X2620Y3480D02*
Y3607D01*
X2700Y3520D02*
Y3607D01*
X2637Y3173D02*
Y3211D01*
X2764Y3106D02*
Y3211D01*
X2390Y3490D02*
X2510D01*
X2740Y3480D02*
X2760D01*
X2840Y3400D01*
X2620Y3480D02*
X2700Y3400D01*
Y3520D02*
X2740Y3480D01*
X2764Y3106D02*
X2900Y2970D01*
X2510Y3490D02*
X2540Y3520D01*
X2710Y3870D02*
Y3940D01*
X2610Y4000D02*
Y4080D01*
X2510Y3720D02*
X2810D01*
X2670Y4140D02*
X2750D01*
X2410Y3820D02*
X2510Y3720D01*
X2460Y4350D02*
X2670Y4140D01*
X2450Y4300D02*
X2680Y4070D01*
X2470Y4220D02*
X2610Y4080D01*
X2710Y3940D02*
X3070Y4300D01*
X2443Y3590D02*
X2460Y3607D01*
X2810Y3720D02*
X2850Y3760D01*
X2620Y4350D02*
Y4433D01*
X2540Y4350D02*
Y4433D01*
X2460Y4350D02*
Y4433D01*
X2780D02*
Y4520D01*
X2690Y4280D02*
X2890D01*
X2680Y4210D02*
X2820D01*
X2800Y4540D02*
X2962D01*
X2620Y4350D02*
X2690Y4280D01*
X2540Y4350D02*
X2680Y4210D01*
X2780Y4520D02*
X2800Y4540D01*
X3070Y4300D02*
X3153D01*
X3299Y4480D02*
X3402D01*
X3067D02*
X3142D01*
X2962Y4540D02*
X3052Y4630D01*
X3020Y4433D02*
X3067Y4480D01*
X3155Y3580D02*
Y3738D01*
X3153Y3820D02*
X3240D01*
X3153Y4060D02*
X3374D01*
X3153Y3740D02*
X3155Y3738D01*
X3240Y3820D02*
X3345Y3715D01*
X2930Y3249D02*
X3021D01*
X2900Y2970D02*
X3413D01*
X2891Y3211D02*
X2930Y3249D01*
X2890Y2920D02*
X3343D01*
X3480Y2783D01*
X3460Y2509D02*
X3480Y2529D01*
X3413Y2970D02*
X3480Y3037D01*
X3345Y3580D02*
Y3715D01*
X3370Y4300D02*
X3374Y4296D01*
G54D101*
X2990Y3900D02*
X3374D01*
X2850Y3760D02*
X2990Y3900D01*
X3374D02*
Y4296D01*
X3370Y4300D02*
X3374Y4296D01*
G54D102*
X2170Y2450D02*
X2555D01*
X2140Y2480D02*
X2170Y2450D01*
X2510Y2495D02*
Y2670D01*
Y2495D02*
X2555Y2450D01*
G54D202*
X2140Y4620D03*
X2320Y3590D03*
X2250Y3660D03*
X2840Y3400D03*
X2700D03*
X2500Y3060D03*
X2390Y3490D03*
X2750Y4140D03*
X2680Y4070D03*
X2610Y4000D03*
X2710Y3870D03*
X2820Y4210D03*
X2890Y4280D03*
X2850Y3760D03*
X3370Y4300D03*
G54D100*
X1360Y978D02*
Y1283D01*
X1563Y978D01*
Y1283D01*
X1665Y978D02*
Y1283D01*
X1834D01*
X1868Y1249D01*
Y1181D01*
X1834Y1147D01*
X1665D01*
X1699D02*
X1868Y978D01*
X2173Y1283D02*
X1970D01*
Y978D01*
Y1147D02*
X2105D01*
X2274Y1249D02*
X2308Y1283D01*
X2410D01*
X2444Y1249D01*
Y1215D01*
X2274Y1046D01*
Y978D01*
X2444D01*
X2749Y1113D02*
X2579D01*
Y1147D01*
X2715Y1283D01*
Y978D01*
X2884Y1283D02*
Y978D01*
X3087D01*
X3392Y1249D02*
Y1012D01*
X3358Y978D01*
X3223D01*
X3189Y1012D01*
Y1249D01*
X3223Y1283D01*
X3358D01*
X3392Y1249D01*
Y1215D01*
X3189Y1012D01*
X3527Y1215D02*
X3595Y1283D01*
Y978D01*
X3527D01*
X3663D01*
X3798Y910D02*
X4002D01*
X4103Y978D02*
Y1283D01*
X4205Y1181D01*
X4306Y1283D01*
Y978D01*
X4408Y1012D02*
X4442Y978D01*
X4577D01*
X4611Y1012D01*
Y1249D01*
X4577Y1283D01*
X4442D01*
X4408Y1249D01*
Y1012D01*
X4713Y1283D02*
X4916D01*
X4814D02*
Y978D01*
X5018Y1012D02*
X5051Y978D01*
X5187D01*
X5221Y1012D01*
Y1249D01*
X5187Y1283D01*
X5051D01*
X5018Y1249D01*
Y1012D01*
X5322Y978D02*
Y1283D01*
X5492D01*
X5526Y1249D01*
Y1181D01*
X5492Y1147D01*
X5322D01*
X5356D02*
X5526Y978D01*
X1360Y775D02*
Y572D01*
X1462Y470D01*
X1563Y572D01*
Y775D01*
X1699Y470D02*
Y673D01*
Y639D01*
X1733Y673D01*
X1834D01*
X1868Y639D01*
X1970Y504D02*
X2003Y470D01*
X2139D01*
X2173Y504D01*
Y538D01*
X2139Y572D01*
X2003D01*
X1970Y605D01*
Y639D01*
X2003Y673D01*
X2139D01*
X2173Y639D01*
X2376Y741D02*
Y504D01*
X2410Y470D01*
X2308Y673D02*
X2444D01*
X2613D02*
Y538D01*
X2681Y470D01*
X2715D01*
X2782Y538D01*
Y673D01*
X3087D02*
Y470D01*
Y504D01*
X3053Y470D01*
X2952D01*
X2918Y504D01*
Y639D01*
X2952Y673D01*
X3053D01*
X3087Y639D01*
X3494Y741D02*
X3527Y775D01*
X3629D01*
X3663Y741D01*
Y707D01*
X3494Y538D01*
Y470D01*
X3663D01*
X4239Y775D02*
X4171Y707D01*
Y538D01*
X4239Y470D01*
X4713Y673D02*
X4916D01*
X4713Y470D01*
X4916D01*
X5221Y673D02*
Y470D01*
Y504D01*
X5187Y470D01*
X5085D01*
X5051Y504D01*
Y639D01*
X5085Y673D01*
X5187D01*
X5221Y639D01*
X5526Y775D02*
Y470D01*
X5390D01*
X5356Y504D01*
Y605D01*
X5390Y639D01*
X5526D01*
X5661Y470D02*
Y673D01*
Y639D01*
X5695Y673D01*
X5797D01*
X5830Y639D01*
Y470D01*
X6034Y741D02*
D01*
Y673D02*
Y470D01*
X6643Y775D02*
X6711Y707D01*
Y538D01*
X6643Y470D01*
X1563Y267D02*
X1360D01*
Y-38D01*
Y131D02*
X1495D01*
X1868Y-4D02*
X1834Y-38D01*
X1733D01*
X1699Y-4D01*
Y131D01*
X1733Y165D01*
X1834D01*
X1868Y131D01*
Y97D01*
X1834Y64D01*
X1699D01*
X2003Y267D02*
Y-38D01*
X2139D01*
X2173Y-4D01*
Y97D01*
X2139Y131D01*
X2003D01*
X2308Y-38D02*
Y165D01*
Y131D01*
X2342Y165D01*
X2444D01*
X2478Y131D01*
X2749Y165D02*
Y-38D01*
Y-4D01*
X2715Y-38D01*
X2647D01*
X2613Y-4D01*
Y165D01*
X3087D02*
Y-38D01*
Y-4D01*
X3053Y-38D01*
X2952D01*
X2918Y-4D01*
Y131D01*
X2952Y165D01*
X3053D01*
X3087Y131D01*
X3223Y-38D02*
Y165D01*
Y131D01*
X3257Y165D01*
X3358D01*
X3392Y131D01*
X3527Y165D02*
Y-4D01*
X3561Y-38D01*
X3697D01*
Y165D01*
Y-106D01*
X3663Y-140D01*
X3561D01*
X4137Y199D02*
X4205Y267D01*
Y-38D01*
X4137D01*
X4273D01*
X4408Y233D02*
X4442Y267D01*
X4543D01*
X4577Y233D01*
Y131D01*
X4476D01*
X4577D01*
Y-4D01*
X4543Y-38D01*
X4442D01*
X4408Y-4D01*
X4814Y-106D02*
X4848Y-72D01*
Y-4D01*
X4814D01*
Y-38D01*
X4848D01*
X5322Y233D02*
X5356Y267D01*
X5458D01*
X5492Y233D01*
Y199D01*
X5322Y30D01*
Y-38D01*
X5492D01*
X5830Y233D02*
Y-4D01*
X5797Y-38D01*
X5661D01*
X5627Y-4D01*
Y233D01*
X5661Y267D01*
X5797D01*
X5830Y233D01*
Y199D01*
X5627Y-4D01*
X5932Y233D02*
X5966Y267D01*
X6067D01*
X6101Y233D01*
Y199D01*
X5932Y30D01*
Y-38D01*
X6101D01*
X6271Y199D02*
X6338Y267D01*
Y-38D01*
X6271D01*
X6406D01*
X6846Y233D02*
X6880Y267D01*
X6982D01*
X7016Y233D01*
Y199D01*
X6846Y30D01*
Y-38D01*
X7016D01*
X7151Y233D02*
X7185Y267D01*
X7287D01*
X7321Y233D01*
Y131D01*
X7219D01*
X7321D01*
Y-4D01*
X7287Y-38D01*
X7185D01*
X7151Y-4D01*
X7591Y165D02*
Y199D01*
X7558D01*
Y165D01*
X7591D01*
Y30D02*
Y64D01*
X7558D01*
Y30D01*
X7591D01*
X7795Y199D02*
X7862Y267D01*
Y-38D01*
X7795D01*
X7930D01*
X8099D02*
X8167D01*
X8235Y30D01*
Y233D01*
X8201Y267D01*
X8099D01*
X8066Y233D01*
Y165D01*
X8099Y131D01*
X8235D01*
X8506Y165D02*
Y199D01*
X8472D01*
Y165D01*
X8506D01*
Y30D02*
Y64D01*
X8472D01*
Y30D01*
X8506D01*
X8675Y233D02*
X8709Y267D01*
X8811D01*
X8845Y233D01*
Y131D01*
X8743D01*
X8845D01*
Y-4D01*
X8811Y-38D01*
X8709D01*
X8675Y-4D01*
X8980Y233D02*
X9014Y267D01*
X9115D01*
X9149Y233D01*
Y199D01*
X8980Y30D01*
Y-38D01*
X9149D01*
M02*
