M48
METRIC,TZ
T1C.750
T2C.300
%
M47, File: Drills.ncd
M71
G90
G05
T1
X2290Y4630
X2798
X2544
X3306
X3052
X3560
T2
X2140Y4620
X2190Y4690
X2090
X2300Y4510
Y4390
X2320Y3590
X2250Y3660
X2230Y3570
X2120Y3040
X2180Y2960
X2200Y3390
X2300Y3500
X2210Y3480
X2120Y2880
X2250
X2380
X2580
X2480
X2830Y2430
X2820Y2870
X2770Y2910
X2730Y2950
X2840Y3400
X2700
X2500Y3060
X2390Y3490
Y3060
X2550Y3430
X2750Y4140
X2680Y4070
X2610Y4000
X2710Y3870
X2470Y4050
X2530Y3800
X2820Y3910
X2640Y3790
X2630Y3910
X2570Y3860
X2480Y3900
X2470Y4120
X2510Y3970
X2780Y3810
X2820Y4210
X2660Y4600
X2410Y4610
X2370Y4390
X2670Y4690
X2410
X2370Y4510
X2890Y4280
X2920Y4600
X3180Y4690
X2930
X2850Y3760
X3250Y3390
X2970Y3470
X3030Y3400
X3130
X3300Y2720
X3210Y2830
X3220Y2430
X3080
X3300Y2580
X3120Y2850
X3580Y2430
Y2650
X3360Y2430
X3320Y2820
X3380Y2660
X3440Y3450
X3460Y3540
X3350Y3410
X3460Y3810
X3430Y3720
X3460Y3620
X3350Y3800
X3370Y4300
X3460Y4200
Y4360
X3500Y4300
X3580Y4350
X3440Y4690
X3320Y4390
M30
