G04 SilkscreenTop *
G04 Layout NRF24L01_MOTOR.pcb *
G04 Designed with PCB elegance 3.52 *
G04 *
G04 *
%FSLAX42Y42*%
%MOMM*%
G75*
G01*
%IPPOS*%
%ADD100C,0.0000*%
%ADD101C,0.1530*%
%ADD102C,0.2000*%
%ADD200C,0.2000*%
%ADD201C,0.7000*%
%ADD202C,0.4000*%
G54D100*
G54D200*
X1405Y3355D02*
Y4555D01*
X3205Y3355D02*
X1405D01*
Y4555D02*
X3205D01*
X2005Y3355D02*
Y4555D01*
X3065Y3139D02*
X2075D01*
Y2841D01*
X3065D02*
X2075D01*
X3205Y4480D02*
Y4555D01*
X3065Y3139D02*
Y2841D01*
X3205Y3355D02*
Y3440D01*
X3310Y3000D02*
Y2980D01*
X3260Y3000D02*
Y2980D01*
X3180Y3000D02*
Y2980D01*
X3087Y2624D02*
Y2656D01*
X3213Y2624D02*
Y2656D01*
X3520Y3000D02*
Y2980D01*
X3440Y3000D02*
Y2980D01*
X3390Y3000D02*
Y2980D01*
X3605Y4111D02*
X3315D01*
X3605Y4029D02*
X3315D01*
X3605Y4111D02*
Y4029D01*
X3315Y4111D02*
Y4029D01*
X3435Y4450D02*
X3405D01*
X3435Y4530D02*
X3405D01*
G54D201*
X3098Y3190D03*
G54D202*
X1849Y3559D02*
X1649D01*
X1549Y3659D01*
X1649Y3759D01*
X1716D01*
Y3559D01*
Y3759D01*
X1849D01*
Y3859D02*
X1549D01*
X1849Y4059D01*
X1549D01*
Y4159D02*
Y4359D01*
Y4259D02*
X1849D01*
G54D101*
X3373Y3450D02*
X3380Y3457D01*
Y3483D01*
X3373Y3490D01*
X3353D01*
X3347Y3483D01*
Y3457D01*
X3340Y3450D01*
X3327D01*
X3320Y3457D01*
Y3483D01*
X3327Y3490D01*
Y3530D02*
X3373D01*
X3380Y3537D01*
X3340Y3517D02*
Y3543D01*
Y3610D02*
X3380D01*
X3373D01*
X3380Y3603D01*
Y3583D01*
X3373Y3577D01*
X3347D01*
X3340Y3583D01*
Y3603D01*
X3347Y3610D01*
X3380Y3637D02*
X3340D01*
X3347D01*
X3340Y3643D01*
Y3663D01*
X3347Y3670D01*
X3380D01*
X3373Y3730D02*
X3380Y3723D01*
Y3703D01*
X3373Y3697D01*
X3347D01*
X3340Y3703D01*
Y3723D01*
X3347Y3730D01*
X3353D01*
X3360Y3723D01*
Y3697D01*
X3320Y3757D02*
X3380D01*
X3340Y3783D02*
X3360Y3763D01*
X3380Y3783D02*
X3353Y3757D01*
X3320Y3810D02*
Y3850D01*
Y3830D02*
X3380D01*
Y3870D02*
X3320D01*
X3340Y3890D01*
X3320Y3910D01*
X3380D01*
X3137Y3290D02*
Y3263D01*
X3150Y3250D01*
X3157D01*
X3170Y3263D01*
Y3290D01*
X3197Y3297D02*
X3210Y3310D01*
Y3250D01*
X3197D01*
X3223D01*
X3270D02*
X3277D01*
Y3257D01*
X3270D01*
Y3250D01*
X3350Y3303D02*
Y3257D01*
X3343Y3250D01*
X3317D01*
X3310Y3257D01*
Y3303D01*
X3317Y3310D01*
X3343D01*
X3350Y3303D01*
Y3297D01*
X3310Y3257D01*
X3327Y2740D02*
Y2780D01*
Y2773D01*
X3333Y2780D01*
X3353D01*
X3360Y2773D01*
Y2740D01*
X3380D02*
Y2800D01*
X3413D01*
X3420Y2793D01*
Y2780D01*
X3413Y2773D01*
X3380D01*
X3387D02*
X3420Y2740D01*
X3480Y2800D02*
X3440D01*
Y2740D01*
Y2773D02*
X3467D01*
X3500Y2793D02*
X3507Y2800D01*
X3527D01*
X3533Y2793D01*
Y2787D01*
X3500Y2753D01*
Y2740D01*
X3533D01*
X3593Y2767D02*
X3560D01*
Y2773D01*
X3587Y2800D01*
Y2740D01*
G54D102*
X1360Y978D02*
Y1283D01*
X1563Y978D01*
Y1283D01*
X1665Y978D02*
Y1283D01*
X1834D01*
X1868Y1249D01*
Y1181D01*
X1834Y1147D01*
X1665D01*
X1699D02*
X1868Y978D01*
X2173Y1283D02*
X1970D01*
Y978D01*
Y1147D02*
X2105D01*
X2274Y1249D02*
X2308Y1283D01*
X2410D01*
X2444Y1249D01*
Y1215D01*
X2274Y1046D01*
Y978D01*
X2444D01*
X2749Y1113D02*
X2579D01*
Y1147D01*
X2715Y1283D01*
Y978D01*
X2884Y1283D02*
Y978D01*
X3087D01*
X3392Y1249D02*
Y1012D01*
X3358Y978D01*
X3223D01*
X3189Y1012D01*
Y1249D01*
X3223Y1283D01*
X3358D01*
X3392Y1249D01*
Y1215D01*
X3189Y1012D01*
X3527Y1215D02*
X3595Y1283D01*
Y978D01*
X3527D01*
X3663D01*
X3798Y910D02*
X4002D01*
X4103Y978D02*
Y1283D01*
X4205Y1181D01*
X4306Y1283D01*
Y978D01*
X4408Y1012D02*
X4442Y978D01*
X4577D01*
X4611Y1012D01*
Y1249D01*
X4577Y1283D01*
X4442D01*
X4408Y1249D01*
Y1012D01*
X4713Y1283D02*
X4916D01*
X4814D02*
Y978D01*
X5018Y1012D02*
X5051Y978D01*
X5187D01*
X5221Y1012D01*
Y1249D01*
X5187Y1283D01*
X5051D01*
X5018Y1249D01*
Y1012D01*
X5322Y978D02*
Y1283D01*
X5492D01*
X5526Y1249D01*
Y1181D01*
X5492Y1147D01*
X5322D01*
X5356D02*
X5526Y978D01*
X1360Y470D02*
Y775D01*
X1529D01*
X1563Y741D01*
Y673D01*
X1529Y639D01*
X1360D01*
X1699Y470D02*
Y673D01*
Y639D01*
X1733Y673D01*
X1834D01*
X1868Y639D01*
X2173Y504D02*
X2139Y470D01*
X2037D01*
X2003Y504D01*
Y639D01*
X2037Y673D01*
X2139D01*
X2173Y639D01*
Y605D01*
X2139Y572D01*
X2003D01*
X2478Y775D02*
Y470D01*
X2342D01*
X2308Y504D01*
Y605D01*
X2342Y639D01*
X2478D01*
X2613Y470D02*
Y673D01*
Y639D01*
X2647Y673D01*
X2749D01*
X2782Y639D01*
Y470D01*
X2986Y741D02*
D01*
Y673D02*
Y470D01*
X3527Y368D02*
Y673D01*
Y639D01*
X3561Y673D01*
X3663D01*
X3697Y639D01*
Y504D01*
X3663Y470D01*
X3561D01*
X3527Y504D01*
X3832D02*
Y639D01*
X3866Y673D01*
X3968D01*
X4002Y639D01*
Y504D01*
X3968Y470D01*
X3866D01*
X3832Y504D01*
X4205Y741D02*
Y504D01*
X4239Y470D01*
X4137Y673D02*
X4273D01*
X4510Y741D02*
D01*
Y673D02*
Y470D01*
X4713Y504D02*
X4747Y470D01*
X4882D01*
X4916Y504D01*
Y538D01*
X4882Y572D01*
X4747D01*
X4713Y605D01*
Y639D01*
X4747Y673D01*
X4882D01*
X4916Y639D01*
X5051Y775D02*
Y470D01*
X5187Y673D02*
X5085Y572D01*
X5187Y470D02*
X5051Y605D01*
X1563Y267D02*
X1360D01*
Y-38D01*
Y131D02*
X1495D01*
X1868Y-4D02*
X1834Y-38D01*
X1733D01*
X1699Y-4D01*
Y131D01*
X1733Y165D01*
X1834D01*
X1868Y131D01*
Y97D01*
X1834Y64D01*
X1699D01*
X2003Y267D02*
Y-38D01*
X2139D01*
X2173Y-4D01*
Y97D01*
X2139Y131D01*
X2003D01*
X2308Y-38D02*
Y165D01*
Y131D01*
X2342Y165D01*
X2444D01*
X2478Y131D01*
X2749Y165D02*
Y-38D01*
Y-4D01*
X2715Y-38D01*
X2647D01*
X2613Y-4D01*
Y165D01*
X3087D02*
Y-38D01*
Y-4D01*
X3053Y-38D01*
X2952D01*
X2918Y-4D01*
Y131D01*
X2952Y165D01*
X3053D01*
X3087Y131D01*
X3223Y-38D02*
Y165D01*
Y131D01*
X3257Y165D01*
X3358D01*
X3392Y131D01*
X3527Y165D02*
Y-4D01*
X3561Y-38D01*
X3697D01*
Y165D01*
Y-106D01*
X3663Y-140D01*
X3561D01*
X4137Y199D02*
X4205Y267D01*
Y-38D01*
X4137D01*
X4273D01*
X4408Y233D02*
X4442Y267D01*
X4543D01*
X4577Y233D01*
Y131D01*
X4476D01*
X4577D01*
Y-4D01*
X4543Y-38D01*
X4442D01*
X4408Y-4D01*
X4814Y-106D02*
X4848Y-72D01*
Y-4D01*
X4814D01*
Y-38D01*
X4848D01*
X5322Y233D02*
X5356Y267D01*
X5458D01*
X5492Y233D01*
Y199D01*
X5322Y30D01*
Y-38D01*
X5492D01*
X5830Y233D02*
Y-4D01*
X5797Y-38D01*
X5661D01*
X5627Y-4D01*
Y233D01*
X5661Y267D01*
X5797D01*
X5830Y233D01*
Y199D01*
X5627Y-4D01*
X5932Y233D02*
X5966Y267D01*
X6067D01*
X6101Y233D01*
Y199D01*
X5932Y30D01*
Y-38D01*
X6101D01*
X6271Y199D02*
X6338Y267D01*
Y-38D01*
X6271D01*
X6406D01*
X6846Y233D02*
X6880Y267D01*
X6982D01*
X7016Y233D01*
Y199D01*
X6846Y30D01*
Y-38D01*
X7016D01*
X7151Y233D02*
X7185Y267D01*
X7287D01*
X7321Y233D01*
Y131D01*
X7219D01*
X7321D01*
Y-4D01*
X7287Y-38D01*
X7185D01*
X7151Y-4D01*
X7591Y165D02*
Y199D01*
X7558D01*
Y165D01*
X7591D01*
Y30D02*
Y64D01*
X7558D01*
Y30D01*
X7591D01*
X7795Y199D02*
X7862Y267D01*
Y-38D01*
X7795D01*
X7930D01*
X8099D02*
X8167D01*
X8235Y30D01*
Y233D01*
X8201Y267D01*
X8099D01*
X8066Y233D01*
Y165D01*
X8099Y131D01*
X8235D01*
X8506Y165D02*
Y199D01*
X8472D01*
Y165D01*
X8506D01*
Y30D02*
Y64D01*
X8472D01*
Y30D01*
X8506D01*
X8675Y233D02*
X8709Y267D01*
X8811D01*
X8845Y233D01*
Y131D01*
X8743D01*
X8845D01*
Y-4D01*
X8811Y-38D01*
X8709D01*
X8675Y-4D01*
X9014Y199D02*
X9082Y267D01*
Y-38D01*
X9014D01*
X9149D01*
M02*
