G04 SolderMaskTop *
G04 Layout NRF24L01_MOTOR.pcb *
G04 Designed with PCB elegance 3.52 *
G04 *
G04 *
%FSLAX33Y33*%
%MOMM*%
G75*
G01*
%IPPOS*%
%ADD100C,0.2000*%
%ADD200C,1.9000*%
%ADD201C,1.2500*%
%ADD400R,0.7500X1.8100*%
%ADD401R,1.5700X1.0900*%
%ADD402R,2.3000X1.1000*%
%ADD403R,0.7200X1.2400*%
%ADD404R,0.8600X1.0300*%
%ADD405R,1.0300X0.9100*%
G54D400*
X22525Y32505D03*
X21255D03*
Y27295D03*
X22525D03*
X23795D03*
X25065D03*
X26335D03*
X27605D03*
Y32505D03*
X26335D03*
X25065D03*
X23795D03*
X30145D03*
X28875D03*
Y27295D03*
X30145D03*
G54D401*
X31500Y25485D03*
Y27315D03*
G54D402*
X31650Y41505D03*
Y42775D03*
Y44045D03*
Y35155D03*
Y36425D03*
Y37695D03*
Y38965D03*
Y40235D03*
G54D200*
X21830Y25300D03*
X24370D03*
X27030D03*
X29570D03*
X34800D03*
Y32400D03*
G54D403*
X35550Y41935D03*
X33650D03*
X34600Y39465D03*
G54D201*
X22900Y46300D03*
X27980D03*
X25440D03*
X33060D03*
X30520D03*
X35600D03*
G54D404*
X33415Y44900D03*
X34985D03*
G54D405*
X33500Y30660D03*
Y29140D03*
X32200Y30660D03*
Y29140D03*
X34800D03*
Y30660D03*
G54D100*
M02*
