G04 SolderMaskBottom *
G04 Layout NRF24L01_MOTOR.pcb *
G04 Designed with PCB elegance 3.52 *
G04 *
G04 *
%FSLAX33Y33*%
%MOMM*%
G75*
G01*
%IPPOS*%
%ADD100C,0.2000*%
%ADD200C,1.9000*%
%ADD201C,1.2500*%
%ADD400R,1.6000X0.6700*%
%ADD401R,0.6700X1.6000*%
%ADD402R,0.7500X1.6100*%
%ADD403R,0.8000X0.9000*%
%ADD404R,1.3400X1.2400*%
%ADD405R,0.9100X1.0300*%
%ADD406R,0.7700X2.0700*%
%ADD407R,0.5700X2.0700*%
%ADD408R,0.8600X1.0300*%
%ADD409R,1.0300X0.8600*%
%ADD410R,1.0300X0.9100*%
G54D400*
X23270Y41400D03*
Y42200D03*
Y43000D03*
Y37400D03*
Y38200D03*
Y39000D03*
Y39800D03*
Y40600D03*
X31530Y43000D03*
Y42200D03*
Y41400D03*
Y40600D03*
Y39800D03*
Y39000D03*
Y38200D03*
Y37400D03*
G54D401*
X27800Y36070D03*
X27000D03*
X26200D03*
X25400D03*
X24600D03*
Y44330D03*
X25400D03*
X26200D03*
X27000D03*
X27800D03*
X28600D03*
X29400D03*
X30200D03*
Y36070D03*
X29400D03*
X28600D03*
G54D200*
X21400Y24800D03*
X34800Y25290D03*
Y27830D03*
Y30370D03*
Y32910D03*
G54D402*
X21290Y32105D03*
X22560D03*
Y26695D03*
X21290D03*
X27640D03*
X26370D03*
X25100D03*
X23830D03*
Y32105D03*
X25100D03*
X26370D03*
X27640D03*
X28910D03*
Y26695D03*
G54D403*
X27050Y24500D03*
X25550D03*
G54D404*
X30210Y30710D03*
Y32490D03*
X32590D03*
Y30710D03*
G54D405*
X33740Y39000D03*
X35260D03*
X33740Y40600D03*
X35260D03*
G54D406*
X31550Y35800D03*
X33450D03*
G54D407*
X32500D03*
G54D201*
X22900Y46300D03*
X27980D03*
X25440D03*
X33060D03*
X30520D03*
X35600D03*
G54D408*
X32985Y44800D03*
X31415D03*
X35585D03*
X34015D03*
G54D409*
X21400Y45285D03*
Y43715D03*
Y42685D03*
Y41115D03*
G54D410*
Y40060D03*
Y38540D03*
Y37460D03*
Y35940D03*
G54D100*
M02*
