G04 SolderMaskBottom *
G04 Layout NRF24L01_MOTOR.pcb *
G04 Designed with PCB elegance 3.52 *
G04 *
G04 *
%FSLAX25Y25*%
%MOIN*%
G75*
G01*
%IPPOS*%
%ADD100C,0.007874*%
%ADD200C,0.074803*%
%ADD201C,0.049213*%
%ADD400R,0.062992X0.026378*%
%ADD401R,0.026378X0.062992*%
%ADD402R,0.029528X0.063386*%
%ADD403R,0.031496X0.035433*%
%ADD404R,0.052756X0.048819*%
%ADD405R,0.035827X0.040551*%
%ADD406R,0.030315X0.081496*%
%ADD407R,0.022441X0.081496*%
%ADD408R,0.033858X0.040551*%
%ADD409R,0.040551X0.033858*%
%ADD410R,0.040551X0.035827*%
G54D400*
X91614Y162992D03*
Y166142D03*
Y169291D03*
Y147244D03*
Y150394D03*
Y153543D03*
Y156693D03*
Y159843D03*
X124134Y169291D03*
Y166142D03*
Y162992D03*
Y159843D03*
Y156693D03*
Y153543D03*
Y150394D03*
Y147244D03*
G54D401*
X109449Y142008D03*
X106299D03*
X103150D03*
X100000D03*
X96850D03*
Y174528D03*
X100000D03*
X103150D03*
X106299D03*
X109449D03*
X112598D03*
X115748D03*
X118898D03*
Y142008D03*
X115748D03*
X112598D03*
G54D200*
X84252Y97638D03*
X137008Y99567D03*
Y109567D03*
Y119567D03*
Y129567D03*
G54D402*
X83819Y126398D03*
X88819D03*
Y105098D03*
X83819D03*
X108819D03*
X103819D03*
X98819D03*
X93819D03*
Y126398D03*
X98819D03*
X103819D03*
X108819D03*
X113819D03*
Y105098D03*
G54D403*
X106496Y96457D03*
X100591D03*
G54D404*
X118937Y120906D03*
Y127913D03*
X128307D03*
Y120906D03*
G54D405*
X132835Y153543D03*
X138819D03*
X132835Y159843D03*
X138819D03*
G54D406*
X124213Y140945D03*
X131694D03*
G54D407*
X127953D03*
G54D201*
X90157Y182283D03*
X110157D03*
X100157D03*
X130157D03*
X120157D03*
X140157D03*
G54D408*
X129862Y176378D03*
X123681D03*
X140098D03*
X133917D03*
G54D409*
X84252Y178287D03*
Y172106D03*
Y168051D03*
Y161870D03*
G54D410*
Y157717D03*
Y151732D03*
Y147480D03*
Y141496D03*
G54D100*
X53543Y38504D02*
Y50504D01*
X61543Y38504D01*
Y50504D01*
X65543Y38504D02*
Y50504D01*
X72210D01*
X73543Y49171D01*
Y46504D01*
X72210Y45171D01*
X65543D01*
X66877D02*
X73543Y38504D01*
X85543Y50504D02*
X77543D01*
Y38504D01*
Y45171D02*
X82877D01*
X89543Y49171D02*
X90877Y50504D01*
X94877D01*
X96210Y49171D01*
Y47837D01*
X89543Y41171D01*
Y38504D01*
X96210D01*
X108210Y43837D02*
X101543D01*
Y45171D01*
X106877Y50504D01*
Y38504D01*
X113543Y50504D02*
Y38504D01*
X121543D01*
X133543Y49171D02*
Y39837D01*
X132210Y38504D01*
X126877D01*
X125543Y39837D01*
Y49171D01*
X126877Y50504D01*
X132210D01*
X133543Y49171D01*
Y47837D01*
X125543Y39837D01*
X138877Y47837D02*
X141543Y50504D01*
Y38504D01*
X138877D01*
X144210D01*
X149543Y35837D02*
X157543D01*
X161543Y38504D02*
Y50504D01*
X165543Y46504D01*
X169543Y50504D01*
Y38504D01*
X173543Y39837D02*
X174877Y38504D01*
X180210D01*
X181543Y39837D01*
Y49171D01*
X180210Y50504D01*
X174877D01*
X173543Y49171D01*
Y39837D01*
X185543Y50504D02*
X193543D01*
X189543D02*
Y38504D01*
X197543Y39837D02*
X198877Y38504D01*
X204210D01*
X205543Y39837D01*
Y49171D01*
X204210Y50504D01*
X198877D01*
X197543Y49171D01*
Y39837D01*
X209543Y38504D02*
Y50504D01*
X216210D01*
X217543Y49171D01*
Y46504D01*
X216210Y45171D01*
X209543D01*
X210877D02*
X217543Y38504D01*
X53543Y30504D02*
X61543D01*
X53543Y18504D01*
X61543D01*
X73543Y26504D02*
Y18504D01*
Y19837D01*
X72210Y18504D01*
X68210D01*
X66877Y19837D01*
Y25171D01*
X68210Y26504D01*
X72210D01*
X73543Y25171D01*
X85543Y30504D02*
Y18504D01*
X80210D01*
X78877Y19837D01*
Y23837D01*
X80210Y25171D01*
X85543D01*
X90877Y18504D02*
Y26504D01*
Y25171D01*
X92210Y26504D01*
X96210D01*
X97543Y25171D01*
Y18504D01*
X105543Y29171D02*
D01*
Y26504D02*
Y18504D01*
X126877Y14504D02*
Y26504D01*
Y25171D01*
X128210Y26504D01*
X132210D01*
X133543Y25171D01*
Y19837D01*
X132210Y18504D01*
X128210D01*
X126877Y19837D01*
X145543Y26504D02*
Y18504D01*
Y19837D01*
X144210Y18504D01*
X140210D01*
X138877Y19837D01*
Y25171D01*
X140210Y26504D01*
X144210D01*
X145543Y25171D01*
X157543Y29171D02*
D01*
Y26504D02*
Y15837D01*
X156210Y14504D01*
X152210D01*
D01*
X169543Y19837D02*
X168210Y18504D01*
X164210D01*
X162877Y19837D01*
Y25171D01*
X164210Y26504D01*
X168210D01*
X169543Y25171D01*
Y23837D01*
X168210Y22504D01*
X162877D01*
X181543Y25171D02*
X180210Y26504D01*
X176210D01*
X174877Y25171D01*
Y19837D01*
X176210Y18504D01*
X180210D01*
X181543Y19837D01*
X189543Y29171D02*
D01*
Y26504D02*
Y18504D01*
X209543D02*
Y26504D01*
X212210D01*
X213543Y25171D01*
X214877Y26504D01*
X216210D01*
X217543Y25171D01*
Y18504D01*
X213543Y25171D02*
Y19837D01*
X229543Y26504D02*
Y18504D01*
Y19837D01*
X228210Y18504D01*
X224210D01*
X222877Y19837D01*
Y25171D01*
X224210Y26504D01*
X228210D01*
X229543Y25171D01*
X233543Y19837D02*
X234877Y18504D01*
X240210D01*
X241543Y19837D01*
Y21171D01*
X240210Y22504D01*
X234877D01*
X233543Y23837D01*
Y25171D01*
X234877Y26504D01*
X240210D01*
X241543Y25171D01*
X246877Y30504D02*
Y18504D01*
X252210Y26504D02*
X248210Y22504D01*
X252210Y18504D02*
X246877Y23837D01*
X265543Y26504D02*
Y18504D01*
Y19837D01*
X264210Y18504D01*
X260210D01*
X258877Y19837D01*
Y25171D01*
X260210Y26504D01*
X264210D01*
X265543Y25171D01*
X61543Y10504D02*
X53543D01*
Y-1496D01*
Y5171D02*
X58877D01*
X73543Y-163D02*
X72210Y-1496D01*
X68210D01*
X66877Y-163D01*
Y5171D01*
X68210Y6504D01*
X72210D01*
X73543Y5171D01*
Y3837D01*
X72210Y2504D01*
X66877D01*
X78877Y10504D02*
Y-1496D01*
X84210D01*
X85543Y-163D01*
Y3837D01*
X84210Y5171D01*
X78877D01*
X90877Y-1496D02*
Y6504D01*
Y5171D01*
X92210Y6504D01*
X96210D01*
X97543Y5171D01*
X108210Y6504D02*
Y-1496D01*
Y-163D01*
X106877Y-1496D01*
X104210D01*
X102877Y-163D01*
Y6504D01*
X121543D02*
Y-1496D01*
Y-163D01*
X120210Y-1496D01*
X116210D01*
X114877Y-163D01*
Y5171D01*
X116210Y6504D01*
X120210D01*
X121543Y5171D01*
X126877Y-1496D02*
Y6504D01*
Y5171D01*
X128210Y6504D01*
X132210D01*
X133543Y5171D01*
X138877Y6504D02*
Y-163D01*
X140210Y-1496D01*
X145543D01*
Y6504D01*
Y-4163D01*
X144210Y-5496D01*
X140210D01*
X162877Y7837D02*
X165543Y10504D01*
Y-1496D01*
X162877D01*
X168210D01*
X174877Y7837D02*
X177543Y10504D01*
Y-1496D01*
X174877D01*
X180210D01*
X189543Y-4163D02*
X190877Y-2829D01*
Y-163D01*
X189543D01*
Y-1496D01*
X190877D01*
X209543Y9171D02*
X210877Y10504D01*
X214877D01*
X216210Y9171D01*
Y7837D01*
X209543Y1171D01*
Y-1496D01*
X216210D01*
X229543Y9171D02*
Y-163D01*
X228210Y-1496D01*
X222877D01*
X221543Y-163D01*
Y9171D01*
X222877Y10504D01*
X228210D01*
X229543Y9171D01*
Y7837D01*
X221543Y-163D01*
X233543Y9171D02*
X234877Y10504D01*
X238877D01*
X240210Y9171D01*
Y7837D01*
X233543Y1171D01*
Y-1496D01*
X240210D01*
X246877Y7837D02*
X249543Y10504D01*
Y-1496D01*
X246877D01*
X252210D01*
X270877Y7837D02*
X273543Y10504D01*
Y-1496D01*
X270877D01*
X276210D01*
X286877Y5171D02*
X282877D01*
X281543Y6504D01*
Y9171D01*
X282877Y10504D01*
X286877D01*
X288210Y9171D01*
Y6504D01*
X286877Y5171D01*
X288210Y3837D01*
Y-163D01*
X286877Y-1496D01*
X282877D01*
X281543Y-163D01*
Y3837D01*
X282877Y5171D01*
X298877Y6504D02*
Y7837D01*
X297543D01*
Y6504D01*
X298877D01*
Y1171D02*
Y2504D01*
X297543D01*
Y1171D01*
X298877D01*
X312210Y3837D02*
X305543D01*
Y5171D01*
X310877Y10504D01*
Y-1496D01*
X322877Y10504D02*
X320210D01*
X317543Y7837D01*
Y-163D01*
X318877Y-1496D01*
X322877D01*
X324210Y-163D01*
Y3837D01*
X322877Y5171D01*
X317543D01*
X334877Y6504D02*
Y7837D01*
X333543D01*
Y6504D01*
X334877D01*
Y1171D02*
Y2504D01*
X333543D01*
Y1171D01*
X334877D01*
X341543Y9171D02*
X342877Y10504D01*
X346877D01*
X348210Y9171D01*
Y5171D01*
X344210D01*
X348210D01*
Y-163D01*
X346877Y-1496D01*
X342877D01*
X341543Y-163D01*
X353543Y9171D02*
X354877Y10504D01*
X358877D01*
X360210Y9171D01*
Y5171D01*
X356210D01*
X360210D01*
Y-163D01*
X358877Y-1496D01*
X354877D01*
X353543Y-163D01*
M02*
