G04 Top_1 *
G04 Layout NRF24L01_MOTOR.pcb *
G04 Designed with PCB elegance 3.52 *
G04 *
G04 *
%FSLAX42Y42*%
%MOMM*%
G75*
G01*
%IPPOS*%
%ADD100C,0.2000*%
%ADD101C,0.7000*%
%ADD102C,0.6000*%
%ADD103C,0.4000*%
%ADD104C,0.6500*%
%ADD105C,1.0000*%
%ADD200C,1.8000*%
%ADD201C,1.1500*%
%ADD202C,0.6000*%
%ADD400R,0.6500X1.7100*%
%ADD401R,1.4700X0.9900*%
%ADD402R,2.2000X1.0000*%
%ADD403R,0.6200X1.1400*%
%ADD404R,0.7600X0.9300*%
%ADD405R,0.9300X0.8100*%
%LPD*%G36*
X2050Y4730D02*
X3620D01*
Y2390D01*
X2050D01*
Y4730D01*
G37*
%LPC*%G36*
X2674Y3834D02*
X2663Y3850D01*
X2659Y3870D01*
X2663Y3890D01*
X2674Y3906D01*
X2690Y3917D01*
X2710Y3921D01*
X2730Y3917D01*
X2746Y3906D01*
X2757Y3890D01*
X2761Y3870D01*
X2757Y3850D01*
X2746Y3834D01*
X2741Y3830D01*
Y3670D01*
X2739Y3658D01*
X2732Y3648D01*
X2432Y3349D01*
Y3145D01*
X2327D01*
Y3356D01*
X2354D01*
X2358Y3361D01*
X2679Y3683D01*
Y3830D01*
X2674Y3834D01*
G37*
%LPC*%G36*
X2559Y2835D02*
Y2735D01*
X2560Y2730D01*
Y2600D01*
X2556Y2579D01*
X2545Y2561D01*
X2543Y2560D01*
X2546Y2552D01*
X2548Y2530D01*
X2546Y2508D01*
X2540Y2488D01*
X2529Y2468D01*
X2515Y2452D01*
X2499Y2438D01*
X2479Y2427D01*
X2459Y2421D01*
X2437Y2419D01*
X2415Y2421D01*
X2395Y2427D01*
X2375Y2438D01*
X2359Y2452D01*
X2345Y2468D01*
X2334Y2488D01*
X2328Y2508D01*
X2326Y2530D01*
X2328Y2552D01*
X2334Y2572D01*
X2345Y2592D01*
X2359Y2608D01*
X2375Y2622D01*
X2395Y2633D01*
X2415Y2639D01*
X2437Y2641D01*
X2453Y2639D01*
Y2730D01*
X2454Y2735D01*
Y2835D01*
X2559D01*
G37*
%LPC*%G36*
X2073Y2735D02*
Y2835D01*
X2178D01*
Y2735D01*
X2179Y2730D01*
Y2641D01*
X2183Y2641D01*
X2205Y2639D01*
X2225Y2633D01*
X2245Y2622D01*
X2261Y2608D01*
X2275Y2592D01*
X2286Y2572D01*
X2292Y2552D01*
X2294Y2530D01*
X2292Y2508D01*
X2286Y2488D01*
X2275Y2468D01*
X2261Y2452D01*
X2245Y2438D01*
X2225Y2427D01*
X2205Y2421D01*
X2183Y2419D01*
X2161Y2421D01*
X2141Y2427D01*
X2121Y2438D01*
X2105Y2452D01*
X2091Y2468D01*
X2080Y2488D01*
X2074Y2508D01*
X2072Y2530D01*
X2074Y2552D01*
X2078Y2564D01*
X2076Y2567D01*
X2072Y2588D01*
Y2730D01*
X2073Y2735D01*
G37*
%LPC*%G36*
X2962Y2835D02*
X3067D01*
Y2801D01*
X3244D01*
Y2662D01*
X3067D01*
Y2624D01*
X3040Y2623D01*
X3035Y2608D01*
X3040Y2602D01*
X3056D01*
Y2618D01*
X3244D01*
Y2479D01*
X3056D01*
X3049Y2468D01*
X3035Y2452D01*
X3019Y2438D01*
X2999Y2427D01*
X2979Y2421D01*
X2957Y2419D01*
X2935Y2421D01*
X2915Y2427D01*
X2895Y2438D01*
X2879Y2452D01*
X2865Y2468D01*
X2854Y2488D01*
X2848Y2508D01*
X2846Y2530D01*
X2848Y2552D01*
X2854Y2572D01*
X2865Y2592D01*
X2879Y2608D01*
X2895Y2622D01*
X2915Y2633D01*
X2935Y2639D01*
X2957Y2641D01*
X2962Y2641D01*
Y2724D01*
X2961Y2730D01*
X2962Y2735D01*
Y2835D01*
G37*
%LPC*%G36*
X2580Y2730D02*
X2581Y2735D01*
Y2835D01*
X2686D01*
Y2735D01*
X2687Y2730D01*
Y2639D01*
X2703Y2641D01*
X2725Y2639D01*
X2745Y2633D01*
X2765Y2622D01*
X2781Y2608D01*
X2795Y2592D01*
X2806Y2572D01*
X2812Y2552D01*
X2814Y2530D01*
X2812Y2508D01*
X2806Y2488D01*
X2795Y2468D01*
X2781Y2452D01*
X2765Y2438D01*
X2745Y2427D01*
X2725Y2421D01*
X2703Y2419D01*
X2681Y2421D01*
X2661Y2427D01*
X2641Y2438D01*
X2625Y2452D01*
X2611Y2468D01*
X2600Y2488D01*
X2594Y2508D01*
X2592Y2530D01*
X2594Y2552D01*
X2597Y2560D01*
X2595Y2561D01*
X2584Y2579D01*
X2580Y2600D01*
Y2730D01*
G37*
%LPC*%G36*
X2827Y3969D02*
X2650D01*
X2646Y3964D01*
X2630Y3953D01*
X2610Y3949D01*
X2590Y3953D01*
X2574Y3964D01*
X2563Y3980D01*
X2559Y4000D01*
X2563Y4020D01*
X2574Y4036D01*
X2590Y4047D01*
X2610Y4051D01*
X2630Y4047D01*
X2633Y4050D01*
X2629Y4070D01*
X2633Y4090D01*
X2644Y4106D01*
X2660Y4117D01*
X2680Y4121D01*
X2700Y4117D01*
X2703Y4120D01*
X2699Y4140D01*
X2703Y4160D01*
X2714Y4176D01*
X2730Y4187D01*
X2750Y4191D01*
X2770Y4187D01*
X2773Y4190D01*
X2769Y4210D01*
X2773Y4230D01*
X2784Y4246D01*
X2800Y4257D01*
X2820Y4261D01*
X2840Y4257D01*
X2843Y4260D01*
X2839Y4280D01*
X2843Y4300D01*
X2854Y4316D01*
X2870Y4327D01*
X2890Y4331D01*
X2910Y4327D01*
X2926Y4316D01*
X2930Y4311D01*
X3035D01*
Y4334D01*
Y4475D01*
X3283D01*
Y4479D01*
Y4483D01*
X3167Y4599D01*
X3125D01*
X3108Y4574D01*
X3082Y4557D01*
X3052Y4551D01*
X3022Y4557D01*
X2996Y4574D01*
X2979Y4600D01*
X2973Y4630D01*
X2979Y4660D01*
X2996Y4686D01*
X3022Y4703D01*
X3052Y4709D01*
X3082Y4703D01*
X3108Y4686D01*
X3125Y4661D01*
X3180D01*
X3192Y4659D01*
X3202Y4652D01*
X3227Y4630D01*
X3233Y4660D01*
X3250Y4686D01*
X3276Y4703D01*
X3306Y4709D01*
X3336Y4703D01*
X3362Y4686D01*
X3379Y4660D01*
X3381Y4651D01*
X3475Y4557D01*
X3557D01*
Y4423D01*
X3475D01*
X3401Y4349D01*
Y4340D01*
X3406Y4336D01*
X3417Y4320D01*
X3421Y4300D01*
X3417Y4280D01*
X3416Y4279D01*
Y4194D01*
X3416Y4193D01*
Y4116D01*
X3314D01*
Y4193D01*
X3314Y4194D01*
Y4295D01*
X3318Y4315D01*
X3329Y4331D01*
X3334Y4336D01*
X3339Y4340D01*
Y4361D01*
X3341Y4373D01*
X3348Y4383D01*
X3367Y4402D01*
X3358Y4423D01*
X3342D01*
X3295D01*
Y4334D01*
Y4207D01*
Y4080D01*
Y3953D01*
Y3826D01*
Y3699D01*
X3035D01*
Y3762D01*
X2827Y3969D01*
G37*
%LPC*%G36*
X3583Y3198D02*
X3589Y3218D01*
X3591Y3240D01*
X3589Y3262D01*
X3585Y3276D01*
X3587Y3280D01*
X3591Y3300D01*
Y3867D01*
X3587Y3886D01*
X3576Y3903D01*
X3511Y3968D01*
Y4024D01*
X3409D01*
Y3947D01*
X3409Y3947D01*
X3409Y3946D01*
Y3869D01*
X3465D01*
X3489Y3845D01*
Y3350D01*
X3480Y3351D01*
X3458Y3349D01*
X3438Y3343D01*
X3418Y3332D01*
X3402Y3318D01*
X3388Y3302D01*
X3377Y3282D01*
X3371Y3262D01*
X3369Y3240D01*
X3371Y3218D01*
X3377Y3198D01*
X3388Y3178D01*
X3402Y3162D01*
X3418Y3148D01*
X3416Y3138D01*
X3350D01*
X2690D01*
Y3251D01*
X2686Y3269D01*
Y3310D01*
Y3351D01*
X2700Y3349D01*
X2706Y3350D01*
X2708Y3349D01*
Y3145D01*
X2813D01*
Y3356D01*
X2786D01*
X2782Y3361D01*
X2750Y3394D01*
X2751Y3400D01*
X2747Y3420D01*
X2736Y3436D01*
X2737Y3439D01*
X2803D01*
X2804Y3436D01*
X2793Y3420D01*
X2789Y3400D01*
X2793Y3380D01*
X2804Y3364D01*
X2820Y3353D01*
X2835Y3350D01*
Y3145D01*
X2940D01*
Y3316D01*
X2962Y3325D01*
Y3145D01*
X3067D01*
Y3356D01*
X3017D01*
X2904Y3470D01*
X2973Y3539D01*
X3025Y3486D01*
X3035Y3480D01*
Y3445D01*
X3295D01*
Y3586D01*
X3042D01*
X2894Y3735D01*
X2897Y3740D01*
X2901Y3760D01*
X2897Y3780D01*
X2886Y3796D01*
X2870Y3807D01*
X2850Y3811D01*
X2830Y3807D01*
X2814Y3796D01*
X2803Y3780D01*
X2799Y3760D01*
X2803Y3740D01*
X2809Y3731D01*
Y3720D01*
X2812Y3704D01*
X2821Y3691D01*
X2929Y3583D01*
X2847Y3501D01*
X2680D01*
X2668Y3499D01*
X2658Y3492D01*
X2523Y3356D01*
X2454D01*
Y3145D01*
X2469D01*
Y3100D01*
X2464Y3096D01*
X2453Y3080D01*
X2449Y3060D01*
X2453Y3040D01*
X2462Y3026D01*
X2343D01*
X2246Y3124D01*
X2255Y3145D01*
X2305D01*
Y3356D01*
X2304Y3360D01*
X2384Y3440D01*
X2390Y3439D01*
X2410Y3443D01*
X2426Y3454D01*
X2437Y3470D01*
X2441Y3490D01*
X2437Y3510D01*
X2426Y3526D01*
X2421Y3530D01*
Y3670D01*
X2419Y3682D01*
X2412Y3692D01*
X2361Y3743D01*
Y4149D01*
X2768Y4556D01*
X2798Y4551D01*
X2828Y4557D01*
X2854Y4574D01*
X2871Y4600D01*
X2877Y4630D01*
X2871Y4660D01*
X2854Y4686D01*
X2828Y4703D01*
X2798Y4709D01*
X2768Y4703D01*
X2742Y4686D01*
X2725Y4660D01*
X2719Y4630D01*
X2724Y4600D01*
X2596Y4472D01*
X2575Y4480D01*
Y4557D01*
X2600Y4574D01*
X2617Y4600D01*
X2623Y4630D01*
X2617Y4660D01*
X2600Y4686D01*
X2574Y4703D01*
X2544Y4709D01*
X2514Y4703D01*
X2488Y4686D01*
X2471Y4660D01*
X2465Y4630D01*
X2471Y4600D01*
X2488Y4574D01*
X2513Y4557D01*
Y4447D01*
X2387Y4321D01*
X2282Y4216D01*
X2261Y4224D01*
Y4556D01*
X2290Y4551D01*
X2320Y4557D01*
X2346Y4574D01*
X2363Y4600D01*
X2369Y4630D01*
X2363Y4660D01*
X2346Y4686D01*
X2320Y4703D01*
X2290Y4709D01*
X2260Y4703D01*
X2234Y4686D01*
X2217Y4660D01*
X2211Y4630D01*
X2216Y4600D01*
X2208Y4592D01*
X2201Y4582D01*
X2199Y4570D01*
Y3680D01*
X2201Y3671D01*
X2199Y3660D01*
X2203Y3640D01*
X2214Y3624D01*
X2230Y3613D01*
X2250Y3609D01*
X2270Y3613D01*
X2273Y3610D01*
X2269Y3590D01*
X2273Y3570D01*
X2284Y3554D01*
X2300Y3543D01*
X2320Y3539D01*
X2340Y3543D01*
X2356Y3554D01*
X2359Y3530D01*
X2354Y3526D01*
X2343Y3510D01*
X2339Y3490D01*
X2340Y3484D01*
X2231Y3374D01*
X2224Y3364D01*
X2222Y3356D01*
X2200D01*
Y3195D01*
X2182Y3188D01*
Y3251D01*
X2178Y3269D01*
Y3356D01*
X2161D01*
Y4573D01*
X2176Y4584D01*
X2187Y4600D01*
X2191Y4620D01*
X2187Y4640D01*
X2176Y4656D01*
X2160Y4667D01*
X2140Y4671D01*
X2120Y4667D01*
X2104Y4656D01*
X2093Y4640D01*
X2089Y4620D01*
X2093Y4600D01*
X2099Y4591D01*
Y3356D01*
X2073D01*
Y3269D01*
X2069Y3251D01*
Y3165D01*
X2073Y3146D01*
Y3145D01*
X2073D01*
X2073Y3143D01*
X2086Y3125D01*
X2280Y2930D01*
X2298Y2918D01*
X2320Y2914D01*
X2540D01*
X2562Y2918D01*
X2580Y2930D01*
X2644Y2994D01*
X3350D01*
X3480D01*
X3489Y2996D01*
X3490Y2996D01*
X3517Y3001D01*
X3523Y3005D01*
X3547D01*
Y3027D01*
X3555Y3039D01*
X3560Y3066D01*
Y3164D01*
X3572Y3178D01*
X3583Y3198D01*
G37*
%LPD*%
G54D400*
X2253Y3251D03*
X2126D03*
Y2730D03*
X2253D03*
X2380D03*
X2507D03*
X2634D03*
X2761D03*
Y3251D03*
X2634D03*
X2507D03*
X2380D03*
X3015D03*
X2888D03*
Y2730D03*
X3015D03*
G54D401*
X3150Y2549D03*
Y2732D03*
G54D402*
X3165Y4151D03*
Y4278D03*
Y4405D03*
Y3516D03*
Y3643D03*
Y3770D03*
Y3897D03*
Y4024D03*
G54D200*
X2183Y2530D03*
X2437D03*
X2703D03*
X2957D03*
X3480D03*
Y3240D03*
G54D403*
X3555Y4194D03*
X3365D03*
X3460Y3947D03*
G54D201*
X2290Y4630D03*
X2798D03*
X2544D03*
X3306D03*
X3052D03*
X3560D03*
G54D404*
X3499Y4490D03*
X3342D03*
G54D405*
X3220Y3066D03*
Y2914D03*
X3480D03*
X3350D03*
X3480Y3066D03*
X3350D03*
G54D100*
X2230Y3680D02*
Y4570D01*
X2330Y3730D02*
Y4162D01*
X2280Y3720D02*
Y4170D01*
X2130Y3255D02*
Y4610D01*
X2230Y4570D02*
X2290Y4630D01*
X2330Y4162D02*
X2798Y4630D01*
X2280Y4170D02*
X2544Y4434D01*
X2130Y4610D02*
X2140Y4620D01*
X2320Y3590D02*
Y3680D01*
X2230D02*
X2250Y3660D01*
X2280Y3720D02*
X2320Y3680D01*
X2330Y3730D02*
X2390Y3670D01*
X2253Y3251D02*
Y3353D01*
X2390Y3490D01*
X2761Y3251D02*
Y3340D01*
X2500Y3050D02*
Y3244D01*
X2380Y3251D02*
Y3340D01*
X2507Y3251D02*
Y3297D01*
X2390Y3490D02*
Y3670D01*
X2680Y3470D02*
X2860D01*
X2700Y3400D02*
X2761Y3340D01*
X2500Y3244D02*
X2507Y3251D01*
X2380Y3340D02*
X2710Y3670D01*
X2507Y3297D02*
X2680Y3470D01*
X2634Y3064D02*
X2636Y3066D01*
X2710Y3670D02*
Y3870D01*
X2750Y4140D02*
X2960D01*
X2680Y4070D02*
X2900D01*
X2610Y4000D02*
X2840D01*
X2544Y4434D02*
Y4630D01*
X2820Y4210D02*
X3010D01*
X2890Y4280D02*
X3165D01*
X3306Y4630D02*
X3359D01*
X3052D02*
X3180D01*
X2890Y4280D02*
X2893Y4278D01*
X3010Y4210D02*
X3070Y4151D01*
X3180Y4630D02*
X3320Y4490D01*
X3010Y3550D02*
Y3560D01*
X3070Y4151D02*
X3165D01*
X3077Y4024D02*
X3165D01*
X3074Y3897D02*
X3165D01*
X3071Y3770D02*
X3165D01*
X2960Y4140D02*
X3077Y4024D01*
X2900Y4070D02*
X3074Y3897D01*
X2840Y4000D02*
X3071Y3770D01*
X2860Y3470D02*
X2980Y3590D01*
X2888Y3251D02*
Y3353D01*
X3015Y3251D02*
Y3316D01*
X2840Y3400D02*
X2888Y3353D01*
X2860Y3470D02*
X3015Y3316D01*
X3370Y4300D02*
Y4362D01*
X3320Y4490D02*
X3342D01*
X3359Y4630D02*
X3499Y4490D01*
X3370Y4362D02*
X3499Y4490D01*
G54D101*
X2126Y3165D02*
Y3251D01*
X2320Y2970D02*
X2540D01*
X2126Y3165D02*
X2320Y2970D01*
X2540D02*
X2634Y3064D01*
Y3251D01*
G54D102*
X3540Y3300D02*
Y3867D01*
X3490Y3250D02*
X3540Y3300D01*
X3365Y4194D02*
Y4295D01*
X3460Y3947D02*
X3540Y3867D01*
X3365Y4295D02*
X3370Y4300D01*
G54D103*
X2850Y3720D02*
Y3760D01*
Y3720D02*
X3055Y3516D01*
X3165D01*
G54D104*
X2126Y2588D02*
Y2730D01*
Y2588D02*
X2183Y2530D01*
X2507Y2600D02*
Y2730D01*
X2634Y2600D02*
Y2730D01*
Y2600D02*
X2703Y2530D01*
X2437D02*
X2507Y2600D01*
X3017Y2732D02*
X3150D01*
X2976Y2549D02*
X3150D01*
X3015Y2730D02*
X3017Y2732D01*
X2957Y2530D02*
X2976Y2549D01*
G54D105*
X2636Y3066D02*
X3350D01*
X3480D01*
X3490D02*
Y3250D01*
G54D202*
X2140Y4620D03*
X2320Y3590D03*
X2250Y3660D03*
X2840Y3400D03*
X2700D03*
X2500Y3060D03*
X2390Y3490D03*
X2750Y4140D03*
X2680Y4070D03*
X2610Y4000D03*
X2710Y3870D03*
X2820Y4210D03*
X2890Y4280D03*
X2850Y3760D03*
X3370Y4300D03*
G54D100*
X1360Y978D02*
Y1283D01*
X1563Y978D01*
Y1283D01*
X1665Y978D02*
Y1283D01*
X1834D01*
X1868Y1249D01*
Y1181D01*
X1834Y1147D01*
X1665D01*
X1699D02*
X1868Y978D01*
X2173Y1283D02*
X1970D01*
Y978D01*
Y1147D02*
X2105D01*
X2274Y1249D02*
X2308Y1283D01*
X2410D01*
X2444Y1249D01*
Y1215D01*
X2274Y1046D01*
Y978D01*
X2444D01*
X2749Y1113D02*
X2579D01*
Y1147D01*
X2715Y1283D01*
Y978D01*
X2884Y1283D02*
Y978D01*
X3087D01*
X3392Y1249D02*
Y1012D01*
X3358Y978D01*
X3223D01*
X3189Y1012D01*
Y1249D01*
X3223Y1283D01*
X3358D01*
X3392Y1249D01*
Y1215D01*
X3189Y1012D01*
X3527Y1215D02*
X3595Y1283D01*
Y978D01*
X3527D01*
X3663D01*
X3798Y910D02*
X4002D01*
X4103Y978D02*
Y1283D01*
X4205Y1181D01*
X4306Y1283D01*
Y978D01*
X4408Y1012D02*
X4442Y978D01*
X4577D01*
X4611Y1012D01*
Y1249D01*
X4577Y1283D01*
X4442D01*
X4408Y1249D01*
Y1012D01*
X4713Y1283D02*
X4916D01*
X4814D02*
Y978D01*
X5018Y1012D02*
X5051Y978D01*
X5187D01*
X5221Y1012D01*
Y1249D01*
X5187Y1283D01*
X5051D01*
X5018Y1249D01*
Y1012D01*
X5322Y978D02*
Y1283D01*
X5492D01*
X5526Y1249D01*
Y1181D01*
X5492Y1147D01*
X5322D01*
X5356D02*
X5526Y978D01*
X1360Y775D02*
Y572D01*
X1462Y470D01*
X1563Y572D01*
Y775D01*
X1699Y470D02*
Y673D01*
Y639D01*
X1733Y673D01*
X1834D01*
X1868Y639D01*
X1970Y504D02*
X2003Y470D01*
X2139D01*
X2173Y504D01*
Y538D01*
X2139Y572D01*
X2003D01*
X1970Y605D01*
Y639D01*
X2003Y673D01*
X2139D01*
X2173Y639D01*
X2376Y741D02*
Y504D01*
X2410Y470D01*
X2308Y673D02*
X2444D01*
X2613D02*
Y538D01*
X2681Y470D01*
X2715D01*
X2782Y538D01*
Y673D01*
X3087D02*
Y470D01*
Y504D01*
X3053Y470D01*
X2952D01*
X2918Y504D01*
Y639D01*
X2952Y673D01*
X3053D01*
X3087Y639D01*
X3527Y707D02*
X3595Y775D01*
Y470D01*
X3527D01*
X3663D01*
X4239Y775D02*
X4171Y707D01*
Y538D01*
X4239Y470D01*
X4747Y368D02*
Y673D01*
Y639D01*
X4781Y673D01*
X4882D01*
X4916Y639D01*
Y504D01*
X4882Y470D01*
X4781D01*
X4747Y504D01*
X5051Y470D02*
Y673D01*
Y639D01*
X5085Y673D01*
X5187D01*
X5221Y639D01*
X5526Y504D02*
X5492Y470D01*
X5390D01*
X5356Y504D01*
Y639D01*
X5390Y673D01*
X5492D01*
X5526Y639D01*
Y605D01*
X5492Y572D01*
X5356D01*
X5830Y775D02*
Y470D01*
X5695D01*
X5661Y504D01*
Y605D01*
X5695Y639D01*
X5830D01*
X5966Y470D02*
Y673D01*
Y639D01*
X6000Y673D01*
X6101D01*
X6135Y639D01*
Y470D01*
X6338Y741D02*
D01*
Y673D02*
Y470D01*
X6948Y775D02*
X7016Y707D01*
Y538D01*
X6948Y470D01*
X1563Y267D02*
X1360D01*
Y-38D01*
Y131D02*
X1495D01*
X1868Y-4D02*
X1834Y-38D01*
X1733D01*
X1699Y-4D01*
Y131D01*
X1733Y165D01*
X1834D01*
X1868Y131D01*
Y97D01*
X1834Y64D01*
X1699D01*
X2003Y267D02*
Y-38D01*
X2139D01*
X2173Y-4D01*
Y97D01*
X2139Y131D01*
X2003D01*
X2308Y-38D02*
Y165D01*
Y131D01*
X2342Y165D01*
X2444D01*
X2478Y131D01*
X2749Y165D02*
Y-38D01*
Y-4D01*
X2715Y-38D01*
X2647D01*
X2613Y-4D01*
Y165D01*
X3087D02*
Y-38D01*
Y-4D01*
X3053Y-38D01*
X2952D01*
X2918Y-4D01*
Y131D01*
X2952Y165D01*
X3053D01*
X3087Y131D01*
X3223Y-38D02*
Y165D01*
Y131D01*
X3257Y165D01*
X3358D01*
X3392Y131D01*
X3527Y165D02*
Y-4D01*
X3561Y-38D01*
X3697D01*
Y165D01*
Y-106D01*
X3663Y-140D01*
X3561D01*
X4137Y199D02*
X4205Y267D01*
Y-38D01*
X4137D01*
X4273D01*
X4408Y233D02*
X4442Y267D01*
X4543D01*
X4577Y233D01*
Y131D01*
X4476D01*
X4577D01*
Y-4D01*
X4543Y-38D01*
X4442D01*
X4408Y-4D01*
X4814Y-106D02*
X4848Y-72D01*
Y-4D01*
X4814D01*
Y-38D01*
X4848D01*
X5322Y233D02*
X5356Y267D01*
X5458D01*
X5492Y233D01*
Y199D01*
X5322Y30D01*
Y-38D01*
X5492D01*
X5830Y233D02*
Y-4D01*
X5797Y-38D01*
X5661D01*
X5627Y-4D01*
Y233D01*
X5661Y267D01*
X5797D01*
X5830Y233D01*
Y199D01*
X5627Y-4D01*
X5932Y233D02*
X5966Y267D01*
X6067D01*
X6101Y233D01*
Y199D01*
X5932Y30D01*
Y-38D01*
X6101D01*
X6271Y199D02*
X6338Y267D01*
Y-38D01*
X6271D01*
X6406D01*
X6846Y233D02*
X6880Y267D01*
X6982D01*
X7016Y233D01*
Y199D01*
X6846Y30D01*
Y-38D01*
X7016D01*
X7151Y233D02*
X7185Y267D01*
X7287D01*
X7321Y233D01*
Y131D01*
X7219D01*
X7321D01*
Y-4D01*
X7287Y-38D01*
X7185D01*
X7151Y-4D01*
X7591Y165D02*
Y199D01*
X7558D01*
Y165D01*
X7591D01*
Y30D02*
Y64D01*
X7558D01*
Y30D01*
X7591D01*
X7795Y199D02*
X7862Y267D01*
Y-38D01*
X7795D01*
X7930D01*
X8099D02*
X8167D01*
X8235Y30D01*
Y233D01*
X8201Y267D01*
X8099D01*
X8066Y233D01*
Y165D01*
X8099Y131D01*
X8235D01*
X8506Y165D02*
Y199D01*
X8472D01*
Y165D01*
X8506D01*
Y30D02*
Y64D01*
X8472D01*
Y30D01*
X8506D01*
X8675Y233D02*
X8709Y267D01*
X8811D01*
X8845Y233D01*
Y131D01*
X8743D01*
X8845D01*
Y-4D01*
X8811Y-38D01*
X8709D01*
X8675Y-4D01*
X8980Y233D02*
X9014Y267D01*
X9115D01*
X9149Y233D01*
Y199D01*
X8980Y30D01*
Y-38D01*
X9149D01*
M02*
