G04 Bottom_2 *
G04 Layout NRF24L01_MOTOR.pcb *
G04 Designed with PCB elegance 3.52 *
G04 *
G04 *
%FSLAX25Y25*%
%MOIN*%
G75*
G01*
%IPPOS*%
%ADD100C,0.007874*%
%ADD101C,0.015748*%
%ADD200C,0.070866*%
%ADD201C,0.045276*%
%ADD202C,0.023622*%
%ADD400R,0.059055X0.022441*%
%ADD401R,0.022441X0.059055*%
%ADD402R,0.025591X0.059449*%
%ADD403R,0.027559X0.031496*%
%ADD404R,0.048819X0.044882*%
%ADD405R,0.031890X0.036614*%
%ADD406R,0.026378X0.077559*%
%ADD407R,0.018504X0.077559*%
%ADD408R,0.029921X0.036614*%
%ADD409R,0.036614X0.029921*%
%ADD410R,0.036614X0.031890*%
%LPD*%G36*
X102769Y94094D02*
X104318D01*
Y98832D01*
X107147D01*
X107600Y99284D01*
Y101326D01*
X106739D01*
Y108871D01*
X107600D01*
Y109574D01*
X98675Y118499D01*
X98425Y118450D01*
X97651Y118604D01*
X96995Y119042D01*
X96556Y119698D01*
X96402Y120472D01*
X96556Y121247D01*
X96995Y121903D01*
X97651Y122341D01*
X98425Y122495D01*
X99199Y122341D01*
X99855Y121903D01*
X100294Y121247D01*
X100448Y120472D01*
X100398Y120223D01*
X109681Y110941D01*
X109945Y110545D01*
X110038Y110079D01*
Y108871D01*
X110898D01*
Y101326D01*
X110038D01*
Y99998D01*
X132681D01*
X132722Y100419D01*
X132971Y101239D01*
X133375Y101994D01*
X133918Y102657D01*
X134580Y103200D01*
X135336Y103604D01*
X136155Y103852D01*
X137008Y103936D01*
X137860Y103852D01*
X138680Y103604D01*
X139435Y103200D01*
X140097Y102657D01*
X140641Y101994D01*
X141045Y101239D01*
X141293Y100419D01*
X141377Y99567D01*
X141293Y98715D01*
X141045Y97895D01*
X140641Y97139D01*
X140097Y96477D01*
X139435Y95934D01*
X138680Y95530D01*
X137860Y95281D01*
X137008Y95198D01*
X136155Y95281D01*
X135336Y95530D01*
X134580Y95934D01*
X133918Y96477D01*
X133375Y97139D01*
X133150Y97561D01*
X109324D01*
X108674Y96911D01*
Y94094D01*
X142520D01*
Y186220D01*
X80709D01*
Y100890D01*
X81162Y100727D01*
X81824Y101271D01*
X81739Y101326D01*
Y108871D01*
X85898D01*
Y101682D01*
X85924Y101675D01*
X86679Y101271D01*
X87342Y100727D01*
X87885Y100065D01*
X88289Y99310D01*
X88537Y98490D01*
X88578Y98077D01*
X97228D01*
X97198Y98228D01*
Y101326D01*
X96739D01*
Y108871D01*
X100898D01*
Y101326D01*
X100440D01*
Y98900D01*
X100508Y98832D01*
X102769D01*
Y94094D01*
G37*
%LPC*%G36*
X111739Y101326D02*
X115898D01*
Y108871D01*
X111739D01*
Y101326D01*
G37*
%LPC*%G36*
X91739Y101326D02*
X95898D01*
Y108871D01*
X91739D01*
Y101326D01*
G37*
%LPC*%G36*
X86739Y101326D02*
X90898D01*
Y108871D01*
X86739D01*
Y101326D01*
G37*
%LPC*%G36*
X81739Y122625D02*
X85898D01*
Y130170D01*
X81739D01*
Y122625D01*
G37*
%LPC*%G36*
X86739Y122625D02*
X90898D01*
Y130170D01*
X86739D01*
Y122625D01*
G37*
%LPC*%G36*
X91739Y122625D02*
X95898D01*
Y130170D01*
X91739D01*
Y122625D01*
G37*
%LPC*%G36*
X114678Y118148D02*
X132894D01*
X132722Y118715D01*
X132638Y119567D01*
X132722Y120419D01*
X132971Y121239D01*
X133375Y121994D01*
X133918Y122657D01*
X134580Y123200D01*
X135336Y123604D01*
X136155Y123852D01*
X137008Y123936D01*
X137860Y123852D01*
X138680Y123604D01*
X139435Y123200D01*
X140097Y122657D01*
X140641Y121994D01*
X141045Y121239D01*
X141293Y120419D01*
X141377Y119567D01*
X141293Y118715D01*
X141045Y117895D01*
X140641Y117139D01*
X140097Y116477D01*
X139435Y115934D01*
X138680Y115530D01*
X137860Y115281D01*
X137008Y115198D01*
X136155Y115281D01*
X135336Y115530D01*
X134828Y115801D01*
X134370Y115710D01*
X133747D01*
X133407Y114891D01*
X134918Y113380D01*
X135336Y113604D01*
X136155Y113852D01*
X137008Y113936D01*
X137860Y113852D01*
X138680Y113604D01*
X139435Y113200D01*
X140097Y112657D01*
X140641Y111994D01*
X141045Y111239D01*
X141293Y110419D01*
X141377Y109567D01*
X141293Y108715D01*
X141045Y107895D01*
X140641Y107139D01*
X140097Y106477D01*
X139435Y105934D01*
X138680Y105530D01*
X137860Y105281D01*
X137008Y105198D01*
X136155Y105281D01*
X135336Y105530D01*
X134580Y105934D01*
X133918Y106477D01*
X133375Y107139D01*
X132971Y107895D01*
X132722Y108715D01*
X132638Y109567D01*
X132722Y110419D01*
X132971Y111239D01*
X133194Y111657D01*
X131109Y113742D01*
X113780D01*
X113313Y113835D01*
X112918Y114099D01*
X104391Y122625D01*
X101739D01*
Y130170D01*
X105898D01*
Y124565D01*
X106739Y124914D01*
Y130170D01*
X110898D01*
Y122625D01*
X110694Y122132D01*
X112358Y120468D01*
X114678Y118148D01*
G37*
%LPC*%G36*
X111739Y122625D02*
X115898D01*
Y124869D01*
X122178D01*
Y130958D01*
X115696D01*
Y130170D01*
X111739D01*
Y122625D01*
G37*
%LPC*%G36*
X132369Y184495D02*
X131355Y185173D01*
X130157Y185412D01*
X128960Y185173D01*
X127946Y184495D01*
X127267Y183481D01*
X127029Y182283D01*
X127267Y181086D01*
X127946Y180072D01*
X128960Y179393D01*
X130157Y179155D01*
X131355Y179393D01*
X132369Y180072D01*
X133048Y181086D01*
X133286Y182283D01*
X133048Y183481D01*
X132369Y184495D01*
G37*
%LPC*%G36*
X102369Y184495D02*
X101355Y185173D01*
X100157Y185412D01*
X98960Y185173D01*
X97946Y184495D01*
X97267Y183481D01*
X97029Y182283D01*
X97267Y181086D01*
X97946Y180072D01*
X98960Y179393D01*
X100157Y179155D01*
X101355Y179393D01*
X102369Y180072D01*
X103048Y181086D01*
X103286Y182283D01*
X103048Y183481D01*
X102369Y184495D01*
G37*
%LPC*%G36*
X92369Y184495D02*
X91355Y185173D01*
X90157Y185412D01*
X88960Y185173D01*
X87946Y184495D01*
X87267Y183481D01*
X87029Y182283D01*
X87267Y181086D01*
X87946Y180072D01*
X88960Y179393D01*
X90157Y179155D01*
X91355Y179393D01*
X92369Y180072D01*
X93048Y181086D01*
X93286Y182283D01*
X93048Y183481D01*
X92369Y184495D01*
G37*
%LPC*%G36*
X136213Y173747D02*
X132158D01*
X127566D01*
Y179009D01*
X132158D01*
X136213D01*
Y173747D01*
G37*
%LPC*%G36*
X86275Y181890D02*
X86121Y182664D01*
X85682Y183320D01*
X85026Y183759D01*
X84252Y183912D01*
X83478Y183759D01*
X82822Y183320D01*
X82383Y182664D01*
X82229Y181890D01*
X82383Y181116D01*
X82739Y180583D01*
X81621D01*
Y175991D01*
X86883D01*
Y180583D01*
X85765D01*
X86121Y181116D01*
X86275Y181890D01*
G37*
%LPC*%G36*
X130440Y156174D02*
Y155164D01*
X127887D01*
Y155465D01*
X120381D01*
Y155164D01*
X117717D01*
X117096Y155041D01*
X116570Y154689D01*
X111868Y149987D01*
X111431Y149900D01*
X110774Y149462D01*
X110336Y148806D01*
X110182Y148031D01*
X110232Y147782D01*
X110125Y147675D01*
X99324D01*
X95744Y151256D01*
X95367Y151507D01*
Y151621D01*
Y154771D01*
Y158615D01*
X88282D01*
X88528Y158982D01*
X88620Y159449D01*
Y161070D01*
X95367D01*
Y164220D01*
Y164923D01*
X96739D01*
X99138Y162524D01*
X101537Y160125D01*
Y159052D01*
X101326Y158911D01*
X100887Y158254D01*
X100733Y157480D01*
X100887Y156706D01*
X101326Y156050D01*
X101982Y155612D01*
X102756Y155458D01*
X103530Y155612D01*
X104186Y156050D01*
X104625Y156706D01*
X104779Y157480D01*
X104625Y158254D01*
X104738Y158367D01*
X105512Y158214D01*
X106286Y158367D01*
X106942Y158806D01*
X107381Y159462D01*
X107535Y160236D01*
X107381Y161010D01*
X107494Y161123D01*
X108268Y160969D01*
X109042Y161123D01*
X109698Y161562D01*
X110136Y162218D01*
X110290Y162992D01*
X110136Y163766D01*
X110250Y163879D01*
X111024Y163725D01*
X111798Y163879D01*
X112454Y164318D01*
X112892Y164974D01*
X113046Y165748D01*
X112892Y166522D01*
X113005Y166635D01*
X113780Y166481D01*
X114554Y166635D01*
X115210Y167074D01*
X115648Y167730D01*
X115802Y168504D01*
X115648Y169278D01*
X115210Y169934D01*
X114554Y170373D01*
X113780Y170527D01*
X113005Y170373D01*
X112349Y169934D01*
X112208Y169723D01*
X106410D01*
X106178Y169955D01*
X106517Y170775D01*
X107527D01*
X110676D01*
X113826D01*
X116976D01*
X120381D01*
Y170405D01*
X120004Y170153D01*
X105831Y155980D01*
X105567Y155585D01*
X105474Y155118D01*
Y153934D01*
X105263Y153792D01*
X104824Y153136D01*
X104670Y152362D01*
X104824Y151588D01*
X105263Y150932D01*
X105919Y150493D01*
X106693Y150339D01*
X107467Y150493D01*
X108123Y150932D01*
X108562Y151588D01*
X108716Y152362D01*
X108562Y153136D01*
X108123Y153792D01*
X107912Y153934D01*
Y154613D01*
X119562Y166263D01*
X120381Y165924D01*
Y164220D01*
X127887D01*
Y168064D01*
Y171213D01*
X120820D01*
Y174726D01*
X121253Y175159D01*
X121385D01*
Y173747D01*
X125977D01*
Y179009D01*
X121385D01*
Y177597D01*
X120820D01*
Y178280D01*
X119037D01*
X118697Y179100D01*
X118986Y179388D01*
X120157Y179155D01*
X121355Y179393D01*
X122369Y180072D01*
X123048Y181086D01*
X123286Y182283D01*
X123048Y183481D01*
X122369Y184495D01*
X121355Y185173D01*
X120157Y185412D01*
X118960Y185173D01*
X117946Y184495D01*
X117267Y183481D01*
X117029Y182283D01*
X117262Y181112D01*
X116109Y179959D01*
X112404D01*
X112369Y180072D01*
X113048Y181086D01*
X113286Y182283D01*
X113048Y183481D01*
X112369Y184495D01*
X111355Y185173D01*
X110157Y185412D01*
X108960Y185173D01*
X107946Y184495D01*
X107267Y183481D01*
X107029Y182283D01*
X107267Y181086D01*
X107946Y180072D01*
X108960Y179393D01*
X109132Y179359D01*
X108587Y178815D01*
X108323Y178419D01*
X108295Y178280D01*
X107527D01*
X104377D01*
X101228D01*
X98078D01*
X94928D01*
Y171213D01*
X87861D01*
Y167369D01*
Y167156D01*
X86883Y166750D01*
Y170347D01*
Y174402D01*
X81621D01*
Y170347D01*
Y165755D01*
X84431D01*
X86183Y164003D01*
Y162992D01*
Y160111D01*
X81621D01*
Y155322D01*
X86183D01*
Y149875D01*
X81621D01*
Y145086D01*
X86859D01*
X86714Y144869D01*
X86560Y144094D01*
X86714Y143320D01*
X87152Y142664D01*
X87809Y142226D01*
X88583Y142072D01*
X89357Y142226D01*
X89470Y142113D01*
X89316Y141339D01*
X89470Y140565D01*
X89908Y139908D01*
X90565Y139470D01*
X91339Y139316D01*
X92113Y139470D01*
X92769Y139908D01*
X92910Y140120D01*
X94928D01*
Y139230D01*
X94869Y139270D01*
X94094Y139424D01*
X93320Y139270D01*
X92664Y138832D01*
X92226Y138176D01*
X92072Y137402D01*
X92226Y136628D01*
X92664Y135971D01*
X93320Y135533D01*
X94094Y135379D01*
X94869Y135533D01*
X95525Y135971D01*
X95666Y136183D01*
X98819D01*
X99285Y136276D01*
X99681Y136540D01*
X100862Y137721D01*
X101126Y138116D01*
X101154Y138255D01*
X101922D01*
X101931D01*
Y137008D01*
X102024Y136541D01*
X102288Y136146D01*
X104326Y134108D01*
X104276Y133858D01*
X104430Y133084D01*
X104869Y132428D01*
X105525Y131990D01*
X106299Y131836D01*
X107073Y131990D01*
X107729Y132428D01*
X108168Y133084D01*
X108322Y133858D01*
X108168Y134632D01*
X107729Y135289D01*
X107073Y135727D01*
X106299Y135881D01*
X106050Y135831D01*
X104368Y137513D01*
Y138255D01*
X105072D01*
X105146D01*
X105173Y138116D01*
X105437Y137721D01*
X107012Y136146D01*
X107408Y135882D01*
X107874Y135789D01*
X108157D01*
X109838Y134108D01*
X109788Y133858D01*
X109942Y133084D01*
X110381Y132428D01*
X111037Y131990D01*
X111811Y131836D01*
X112585Y131990D01*
X113241Y132428D01*
X113680Y133084D01*
X113834Y133858D01*
X113680Y134632D01*
X113241Y135289D01*
X112585Y135727D01*
X111811Y135881D01*
X111562Y135831D01*
X109523Y137870D01*
X109128Y138134D01*
X108661Y138227D01*
X108379D01*
X108391Y138255D01*
X111371D01*
X114520D01*
X117670D01*
X120820D01*
Y145322D01*
X122094D01*
Y136267D01*
X126332D01*
Y145322D01*
X127887D01*
Y147184D01*
X128706Y147523D01*
X130475Y145754D01*
Y145623D01*
X129575D01*
Y136267D01*
X133812D01*
Y145623D01*
X132912D01*
Y146259D01*
X132820Y146726D01*
X132555Y147121D01*
X128421Y151256D01*
X128025Y151520D01*
X127887Y151547D01*
Y151923D01*
X130440D01*
Y150913D01*
X135229D01*
Y156174D01*
X134455D01*
Y157212D01*
X135229D01*
Y162473D01*
X134455D01*
Y168382D01*
X134546Y168517D01*
X134700Y169291D01*
X134546Y170065D01*
X134107Y170722D01*
X133451Y171160D01*
X132677Y171314D01*
X131903Y171160D01*
X131247Y170722D01*
X130808Y170065D01*
X130654Y169291D01*
X130808Y168517D01*
X131214Y167910D01*
Y162473D01*
X130440D01*
Y161061D01*
X127887D01*
Y161765D01*
X120381D01*
Y157920D01*
X127887D01*
Y158624D01*
X130440D01*
Y157212D01*
X131214D01*
Y156174D01*
X130440D01*
G37*
%LPD*%
G54D400*
X91614Y162992D03*
Y166142D03*
Y169291D03*
Y147244D03*
Y150394D03*
Y153543D03*
Y156693D03*
Y159843D03*
X124134Y169291D03*
Y166142D03*
Y162992D03*
Y159843D03*
Y156693D03*
Y153543D03*
Y150394D03*
Y147244D03*
G54D401*
X109449Y142008D03*
X106299D03*
X103150D03*
X100000D03*
X96850D03*
Y174528D03*
X100000D03*
X103150D03*
X106299D03*
X109449D03*
X112598D03*
X115748D03*
X118898D03*
Y142008D03*
X115748D03*
X112598D03*
G54D200*
X84252Y97638D03*
X137008Y99567D03*
Y109567D03*
Y119567D03*
Y129567D03*
G54D402*
X83819Y126398D03*
X88819D03*
Y105098D03*
X83819D03*
X108819D03*
X103819D03*
X98819D03*
X93819D03*
Y126398D03*
X98819D03*
X103819D03*
X108819D03*
X113819D03*
Y105098D03*
G54D403*
X106496Y96457D03*
X100591D03*
G54D404*
X118937Y127913D03*
X128307D03*
Y120906D03*
X118937D03*
G54D405*
X132835Y153543D03*
X138819D03*
X132835Y159843D03*
X138819D03*
G54D406*
X124213Y140945D03*
X131694D03*
G54D407*
X127953D03*
G54D201*
X90157Y182283D03*
X110157D03*
X100157D03*
X130157D03*
X120157D03*
X140157D03*
G54D408*
X129862Y176378D03*
X123681D03*
X140098D03*
X133917D03*
G54D409*
X84252Y178287D03*
Y172106D03*
Y168051D03*
Y161870D03*
G54D410*
Y157717D03*
Y151732D03*
Y147480D03*
Y141496D03*
G54D100*
Y178287D02*
Y181890D01*
Y167657D02*
Y172106D01*
X87402Y159449D02*
Y164508D01*
X91614Y169291D02*
X96457D01*
X91614Y166142D02*
X97244D01*
X84252Y167657D02*
X87402Y164508D01*
X88583Y144094D02*
Y144213D01*
X87402Y149213D02*
Y156299D01*
X91614Y150394D02*
X94882D01*
X91339Y141339D02*
X96181D01*
X87402Y162992D02*
X91614D01*
X87795Y156693D02*
X91614D01*
X84252Y147480D02*
X85669D01*
X84252Y157717D02*
X85669D01*
X88583Y144213D02*
X91614Y147244D01*
X87402Y156299D02*
X87795Y156693D01*
X85669Y147480D02*
X87402Y149213D01*
X85669Y157717D02*
X87402Y159449D01*
X108819Y98780D02*
Y110079D01*
Y98780D02*
X136220D01*
X98425Y120472D02*
X108819Y110079D01*
X103819Y124921D02*
X113780Y114961D01*
X106496Y96457D02*
X108819Y98780D01*
X100000Y138583D02*
Y142008D01*
X103150Y137008D02*
Y142008D01*
X106299Y138583D02*
Y142008D01*
X103819Y124921D02*
Y126398D01*
X108819Y122283D02*
Y126398D01*
X94094Y137402D02*
X98819D01*
X107874Y137008D02*
X108661D01*
X111811Y133858D01*
X103150Y137008D02*
X106299Y133858D01*
Y138583D02*
X107874Y137008D01*
X108819Y122283D02*
X114173Y116929D01*
X98819Y137402D02*
X100000Y138583D01*
X106693Y152362D02*
Y155118D01*
X102756Y157480D02*
Y160630D01*
X98819Y146457D02*
X110630D01*
X105118Y162992D02*
X108268D01*
X94882Y150394D02*
X98819Y146457D01*
X96850Y171260D02*
X105118Y162992D01*
X96457Y169291D02*
X105512Y160236D01*
X97244Y166142D02*
X102756Y160630D01*
X106693Y155118D02*
X120866Y169291D01*
X96181Y141339D02*
X96850Y142008D01*
X110630Y146457D02*
X112205Y148031D01*
X103150Y171260D02*
Y174528D01*
X100000Y171260D02*
Y174528D01*
X96850Y171260D02*
Y174528D01*
X109449D02*
Y177953D01*
X105906Y168504D02*
X113780D01*
X105512Y165748D02*
X111024D01*
X110236Y178740D02*
X116614D01*
X103150Y171260D02*
X105906Y168504D01*
X100000Y171260D02*
X105512Y165748D01*
X109449Y177953D02*
X110236Y178740D01*
X120866Y169291D02*
X124134D01*
X129862Y176378D02*
X133917D01*
X120748D02*
X123681D01*
X116614Y178740D02*
X120157Y182283D01*
X118898Y174528D02*
X120748Y176378D01*
X124213Y140945D02*
Y147165D01*
X124134Y150394D02*
X127559D01*
X124134Y159843D02*
X132835D01*
X124134Y147244D02*
X124213Y147165D01*
X127559Y150394D02*
X131694Y146259D01*
X115335Y127913D02*
X118937D01*
X114173Y116929D02*
X134370D01*
X113819Y126398D02*
X115335Y127913D01*
X113780Y114961D02*
X131614D01*
X137008Y109567D01*
X136220Y98780D02*
X137008Y99567D01*
X134370Y116929D02*
X137008Y119567D01*
X131694Y140945D02*
Y146259D01*
X132677Y169291D02*
X132835Y169134D01*
G54D101*
X85433Y96457D02*
X100591D01*
X84252Y97638D02*
X85433Y96457D01*
X98819Y98228D02*
Y105098D01*
Y98228D02*
X100591Y96457D01*
X117717Y153543D02*
X132835D01*
X112205Y148031D02*
X117717Y153543D01*
X132835D02*
Y169134D01*
X132677Y169291D02*
X132835Y169134D01*
G54D202*
X84252Y181890D03*
X91339Y141339D03*
X88583Y144094D03*
X111811Y133858D03*
X106299D03*
X98425Y120472D03*
X94094Y137402D03*
X108268Y162992D03*
X105512Y160236D03*
X102756Y157480D03*
X106693Y152362D03*
X111024Y165748D03*
X113780Y168504D03*
X112205Y148031D03*
X132677Y169291D03*
G54D100*
X53543Y38504D02*
Y50504D01*
X61543Y38504D01*
Y50504D01*
X65543Y38504D02*
Y50504D01*
X72210D01*
X73543Y49171D01*
Y46504D01*
X72210Y45171D01*
X65543D01*
X66877D02*
X73543Y38504D01*
X85543Y50504D02*
X77543D01*
Y38504D01*
Y45171D02*
X82877D01*
X89543Y49171D02*
X90877Y50504D01*
X94877D01*
X96210Y49171D01*
Y47837D01*
X89543Y41171D01*
Y38504D01*
X96210D01*
X108210Y43837D02*
X101543D01*
Y45171D01*
X106877Y50504D01*
Y38504D01*
X113543Y50504D02*
Y38504D01*
X121543D01*
X133543Y49171D02*
Y39837D01*
X132210Y38504D01*
X126877D01*
X125543Y39837D01*
Y49171D01*
X126877Y50504D01*
X132210D01*
X133543Y49171D01*
Y47837D01*
X125543Y39837D01*
X138877Y47837D02*
X141543Y50504D01*
Y38504D01*
X138877D01*
X144210D01*
X149543Y35837D02*
X157543D01*
X161543Y38504D02*
Y50504D01*
X165543Y46504D01*
X169543Y50504D01*
Y38504D01*
X173543Y39837D02*
X174877Y38504D01*
X180210D01*
X181543Y39837D01*
Y49171D01*
X180210Y50504D01*
X174877D01*
X173543Y49171D01*
Y39837D01*
X185543Y50504D02*
X193543D01*
X189543D02*
Y38504D01*
X197543Y39837D02*
X198877Y38504D01*
X204210D01*
X205543Y39837D01*
Y49171D01*
X204210Y50504D01*
X198877D01*
X197543Y49171D01*
Y39837D01*
X209543Y38504D02*
Y50504D01*
X216210D01*
X217543Y49171D01*
Y46504D01*
X216210Y45171D01*
X209543D01*
X210877D02*
X217543Y38504D01*
X53543Y30504D02*
Y22504D01*
X57543Y18504D01*
X61543Y22504D01*
Y30504D01*
X66877Y18504D02*
Y26504D01*
Y25171D01*
X68210Y26504D01*
X72210D01*
X73543Y25171D01*
X77543Y19837D02*
X78877Y18504D01*
X84210D01*
X85543Y19837D01*
Y21171D01*
X84210Y22504D01*
X78877D01*
X77543Y23837D01*
Y25171D01*
X78877Y26504D01*
X84210D01*
X85543Y25171D01*
X93543Y29171D02*
Y19837D01*
X94877Y18504D01*
X90877Y26504D02*
X96210D01*
X102877D02*
Y21171D01*
X105543Y18504D01*
X106877D01*
X109543Y21171D01*
Y26504D01*
X121543D02*
Y18504D01*
Y19837D01*
X120210Y18504D01*
X116210D01*
X114877Y19837D01*
Y25171D01*
X116210Y26504D01*
X120210D01*
X121543Y25171D01*
X137543Y29171D02*
X138877Y30504D01*
X142877D01*
X144210Y29171D01*
Y27837D01*
X137543Y21171D01*
Y18504D01*
X144210D01*
X166877Y30504D02*
X164210Y27837D01*
Y21171D01*
X166877Y18504D01*
X185543Y26504D02*
X193543D01*
X185543Y18504D01*
X193543D01*
X205543Y26504D02*
Y18504D01*
Y19837D01*
X204210Y18504D01*
X200210D01*
X198877Y19837D01*
Y25171D01*
X200210Y26504D01*
X204210D01*
X205543Y25171D01*
X217543Y30504D02*
Y18504D01*
X212210D01*
X210877Y19837D01*
Y23837D01*
X212210Y25171D01*
X217543D01*
X222877Y18504D02*
Y26504D01*
Y25171D01*
X224210Y26504D01*
X228210D01*
X229543Y25171D01*
Y18504D01*
X237543Y29171D02*
D01*
Y26504D02*
Y18504D01*
X261543Y30504D02*
X264210Y27837D01*
Y21171D01*
X261543Y18504D01*
X61543Y10504D02*
X53543D01*
Y-1496D01*
Y5171D02*
X58877D01*
X73543Y-163D02*
X72210Y-1496D01*
X68210D01*
X66877Y-163D01*
Y5171D01*
X68210Y6504D01*
X72210D01*
X73543Y5171D01*
Y3837D01*
X72210Y2504D01*
X66877D01*
X78877Y10504D02*
Y-1496D01*
X84210D01*
X85543Y-163D01*
Y3837D01*
X84210Y5171D01*
X78877D01*
X90877Y-1496D02*
Y6504D01*
Y5171D01*
X92210Y6504D01*
X96210D01*
X97543Y5171D01*
X108210Y6504D02*
Y-1496D01*
Y-163D01*
X106877Y-1496D01*
X104210D01*
X102877Y-163D01*
Y6504D01*
X121543D02*
Y-1496D01*
Y-163D01*
X120210Y-1496D01*
X116210D01*
X114877Y-163D01*
Y5171D01*
X116210Y6504D01*
X120210D01*
X121543Y5171D01*
X126877Y-1496D02*
Y6504D01*
Y5171D01*
X128210Y6504D01*
X132210D01*
X133543Y5171D01*
X138877Y6504D02*
Y-163D01*
X140210Y-1496D01*
X145543D01*
Y6504D01*
Y-4163D01*
X144210Y-5496D01*
X140210D01*
X162877Y7837D02*
X165543Y10504D01*
Y-1496D01*
X162877D01*
X168210D01*
X174877Y7837D02*
X177543Y10504D01*
Y-1496D01*
X174877D01*
X180210D01*
X189543Y-4163D02*
X190877Y-2829D01*
Y-163D01*
X189543D01*
Y-1496D01*
X190877D01*
X209543Y9171D02*
X210877Y10504D01*
X214877D01*
X216210Y9171D01*
Y7837D01*
X209543Y1171D01*
Y-1496D01*
X216210D01*
X229543Y9171D02*
Y-163D01*
X228210Y-1496D01*
X222877D01*
X221543Y-163D01*
Y9171D01*
X222877Y10504D01*
X228210D01*
X229543Y9171D01*
Y7837D01*
X221543Y-163D01*
X233543Y9171D02*
X234877Y10504D01*
X238877D01*
X240210Y9171D01*
Y7837D01*
X233543Y1171D01*
Y-1496D01*
X240210D01*
X246877Y7837D02*
X249543Y10504D01*
Y-1496D01*
X246877D01*
X252210D01*
X270877Y7837D02*
X273543Y10504D01*
Y-1496D01*
X270877D01*
X276210D01*
X286877Y5171D02*
X282877D01*
X281543Y6504D01*
Y9171D01*
X282877Y10504D01*
X286877D01*
X288210Y9171D01*
Y6504D01*
X286877Y5171D01*
X288210Y3837D01*
Y-163D01*
X286877Y-1496D01*
X282877D01*
X281543Y-163D01*
Y3837D01*
X282877Y5171D01*
X298877Y6504D02*
Y7837D01*
X297543D01*
Y6504D01*
X298877D01*
Y1171D02*
Y2504D01*
X297543D01*
Y1171D01*
X298877D01*
X312210Y3837D02*
X305543D01*
Y5171D01*
X310877Y10504D01*
Y-1496D01*
X322877Y10504D02*
X320210D01*
X317543Y7837D01*
Y-163D01*
X318877Y-1496D01*
X322877D01*
X324210Y-163D01*
Y3837D01*
X322877Y5171D01*
X317543D01*
X334877Y6504D02*
Y7837D01*
X333543D01*
Y6504D01*
X334877D01*
Y1171D02*
Y2504D01*
X333543D01*
Y1171D01*
X334877D01*
X341543Y9171D02*
X342877Y10504D01*
X346877D01*
X348210Y9171D01*
Y5171D01*
X344210D01*
X348210D01*
Y-163D01*
X346877Y-1496D01*
X342877D01*
X341543Y-163D01*
X353543Y9171D02*
X354877Y10504D01*
X358877D01*
X360210Y9171D01*
Y5171D01*
X356210D01*
X360210D01*
Y-163D01*
X358877Y-1496D01*
X354877D01*
X353543Y-163D01*
M02*
