M48
INCH,TZ
T1C.029528
T2C.011811
%
M47, File: Drills.ncd
M72
G90
G05
T1
X90157Y182283
X110157
X100157
X130157
X120157
X140157
T2
X84252Y181890
X82677Y184252
X90157Y172835
Y177559
X86220Y184252
X91339Y141339
X88583Y144094
Y141339
X83465Y119685
X85827Y116535
X86614Y133465
X90551Y137795
X87008Y137008
X83465Y113386
X88583
X111417Y96457
X93701Y113386
X101575
X111024
X105906Y116929
X108661Y115354
X97638Y113386
X111811Y133858
X106299
X98425Y120472
X94094Y137402
Y120472
X100394Y135039
X108268Y162992
X105512Y160236
X102756Y157480
X106693Y152362
X97244Y159449
X104331Y148819
X98031Y153543
X103937Y154724
X99606Y149606
X109055
X101969Y152362
X97638Y162598
X99213Y156693
X111024Y153937
Y165748
X104724Y181102
X94882Y181496
X93307Y172835
X93701Y177559
X94882Y184252
X105118
X113780Y168504
X114961Y181102
X115354Y184252
X125197
X112205Y148031
X127953Y133465
X116929Y136614
X119291Y133858
X123228
X126772Y96063
X121654
X130315Y110630
X129921Y101969
Y107087
X122441Y112205
X126378Y111417
X140551Y104331
X140945Y95669
X131102Y96457
X133465Y104331
X135433Y135827
X136220Y139370
X131890Y134252
X136220Y150000
X135039Y146457
X136220Y142520
X131890Y149606
X132677Y169291
X136220Y165354
X135433Y184252
X130709Y172835
X136220Y171654
X140551Y171457
X137795Y169291
M30
