G04 SilkscreenBottom *
G04 Layout NRF24L01_MOTOR.pcb *
G04 Designed with PCB elegance 3.52 *
G04 *
G04 *
%FSLAX33Y33*%
%MOMM*%
G75*
G01*
%IPPOS*%
%ADD100C,0.1530*%
%ADD101C,0.2000*%
%ADD200C,0.2000*%
%ADD201C,0.7000*%
G54D200*
X21000Y44650D02*
Y44350D01*
X21800Y44650D02*
Y44350D01*
X21000Y42050D02*
Y41750D01*
X21800Y42050D02*
Y41750D01*
X21000Y39400D02*
Y39200D01*
X21800Y39400D02*
Y39200D01*
X21000Y36800D02*
Y36600D01*
X21800Y36800D02*
Y36600D01*
X29400Y31090D02*
X20800D01*
Y27710D02*
Y31090D01*
X29400Y27710D02*
X20800D01*
X26440Y24100D02*
X26160D01*
X26440Y24900D02*
X26160D01*
X24280Y37080D02*
Y43320D01*
X30520Y37080D02*
X24280D01*
X30520Y43320D02*
X24280D01*
X30520Y37080D02*
Y43320D01*
X32350Y45200D02*
X32050D01*
X32350Y44400D02*
X32050D01*
X30900Y36450D02*
Y35150D01*
X30960Y36450D02*
X30900D01*
X29400Y27710D02*
Y31090D01*
X31090Y30350D02*
X31710D01*
X33000Y31540D02*
Y31660D01*
X29800Y31540D02*
Y31660D01*
X31090Y32850D02*
X31710D01*
X30960Y35150D02*
X30900D01*
X34100Y36450D02*
Y35150D01*
X34040D01*
X34400Y38600D02*
X34600D01*
X34400Y39400D02*
X34600D01*
X34100Y36450D02*
X34040D01*
X34400Y40200D02*
X34600D01*
X34400Y41000D02*
X34600D01*
X34950Y44400D02*
X34650D01*
X34950Y45200D02*
X34650D01*
G54D201*
X30990Y43790D03*
X29230Y33410D03*
X29740Y27220D03*
X34010Y45770D03*
G54D100*
X32433Y25700D02*
Y26100D01*
Y26033D01*
X32367Y26100D01*
X32167D01*
X32100Y26033D01*
Y25700D01*
X31900D02*
Y26300D01*
X31567D01*
X31500Y26233D01*
Y26100D01*
X31567Y26033D01*
X31900D01*
X31833D02*
X31500Y25700D01*
X30900Y26300D02*
X31300D01*
Y25700D01*
Y26033D02*
X31033D01*
X30700Y26233D02*
X30633Y26300D01*
X30433D01*
X30367Y26233D01*
Y26167D01*
X30700Y25833D01*
Y25700D01*
X30367D01*
X29767Y25967D02*
X30100D01*
Y26033D01*
X29833Y26300D01*
Y25700D01*
X32633Y27800D02*
Y27533D01*
X32500Y27400D01*
X32433D01*
X32300Y27533D01*
Y27800D01*
X32033Y27867D02*
X31900Y28000D01*
Y27400D01*
X32033D01*
X31767D01*
X31300D02*
X31233D01*
Y27467D01*
X31300D01*
Y27400D01*
X30500Y27933D02*
Y27467D01*
X30567Y27400D01*
X30833D01*
X30900Y27467D01*
Y27933D01*
X30833Y28000D01*
X30567D01*
X30500Y27933D01*
Y27867D01*
X30900Y27467D01*
G54D101*
M02*
