G04 SolderMaskBottom *
G04 Layout NRF24L01_MOTOR.pcb *
G04 Designed with PCB elegance 3.52 *
G04 *
G04 *
%FSLAX42Y42*%
%MOMM*%
G75*
G01*
%IPPOS*%
%ADD100C,0.2000*%
%ADD200C,1.9000*%
%ADD201C,1.2500*%
%ADD400R,1.6000X0.6700*%
%ADD401R,0.6700X1.6000*%
%ADD402R,0.7500X1.6100*%
%ADD403R,0.8000X0.9000*%
%ADD404R,1.3400X1.2400*%
%ADD405R,0.9100X1.0300*%
%ADD406R,0.7700X2.0700*%
%ADD407R,0.5700X2.0700*%
%ADD408R,0.8600X1.0300*%
%ADD409R,1.0300X0.8600*%
%ADD410R,1.0300X0.9100*%
G54D400*
X2327Y4140D03*
Y4220D03*
Y4300D03*
Y3740D03*
Y3820D03*
Y3900D03*
Y3980D03*
Y4060D03*
X3153Y4300D03*
Y4220D03*
Y4140D03*
Y4060D03*
Y3980D03*
Y3900D03*
Y3820D03*
Y3740D03*
G54D401*
X2780Y3607D03*
X2700D03*
X2620D03*
X2540D03*
X2460D03*
Y4433D03*
X2540D03*
X2620D03*
X2700D03*
X2780D03*
X2860D03*
X2940D03*
X3020D03*
Y3607D03*
X2940D03*
X2860D03*
G54D200*
X2140Y2480D03*
X3480Y2529D03*
Y2783D03*
Y3037D03*
Y3291D03*
G54D402*
X2129Y3211D03*
X2256D03*
Y2670D03*
X2129D03*
X2764D03*
X2637D03*
X2510D03*
X2383D03*
Y3211D03*
X2510D03*
X2637D03*
X2764D03*
X2891D03*
Y2670D03*
G54D403*
X2705Y2450D03*
X2555D03*
G54D404*
X3021Y3071D03*
Y3249D03*
X3259D03*
Y3071D03*
G54D405*
X3374Y3900D03*
X3526D03*
X3374Y4060D03*
X3526D03*
G54D406*
X3155Y3580D03*
X3345D03*
G54D407*
X3250D03*
G54D201*
X2290Y4630D03*
X2798D03*
X2544D03*
X3306D03*
X3052D03*
X3560D03*
G54D408*
X3299Y4480D03*
X3142D03*
X3559D03*
X3402D03*
G54D409*
X2140Y4529D03*
Y4372D03*
Y4269D03*
Y4112D03*
G54D410*
Y4006D03*
Y3854D03*
Y3746D03*
Y3594D03*
G54D100*
X1360Y978D02*
Y1283D01*
X1563Y978D01*
Y1283D01*
X1665Y978D02*
Y1283D01*
X1834D01*
X1868Y1249D01*
Y1181D01*
X1834Y1147D01*
X1665D01*
X1699D02*
X1868Y978D01*
X2173Y1283D02*
X1970D01*
Y978D01*
Y1147D02*
X2105D01*
X2274Y1249D02*
X2308Y1283D01*
X2410D01*
X2444Y1249D01*
Y1215D01*
X2274Y1046D01*
Y978D01*
X2444D01*
X2749Y1113D02*
X2579D01*
Y1147D01*
X2715Y1283D01*
Y978D01*
X2884Y1283D02*
Y978D01*
X3087D01*
X3392Y1249D02*
Y1012D01*
X3358Y978D01*
X3223D01*
X3189Y1012D01*
Y1249D01*
X3223Y1283D01*
X3358D01*
X3392Y1249D01*
Y1215D01*
X3189Y1012D01*
X3527Y1215D02*
X3595Y1283D01*
Y978D01*
X3527D01*
X3663D01*
X3798Y910D02*
X4002D01*
X4103Y978D02*
Y1283D01*
X4205Y1181D01*
X4306Y1283D01*
Y978D01*
X4408Y1012D02*
X4442Y978D01*
X4577D01*
X4611Y1012D01*
Y1249D01*
X4577Y1283D01*
X4442D01*
X4408Y1249D01*
Y1012D01*
X4713Y1283D02*
X4916D01*
X4814D02*
Y978D01*
X5018Y1012D02*
X5051Y978D01*
X5187D01*
X5221Y1012D01*
Y1249D01*
X5187Y1283D01*
X5051D01*
X5018Y1249D01*
Y1012D01*
X5322Y978D02*
Y1283D01*
X5492D01*
X5526Y1249D01*
Y1181D01*
X5492Y1147D01*
X5322D01*
X5356D02*
X5526Y978D01*
X1360Y775D02*
X1563D01*
X1360Y470D01*
X1563D01*
X1868Y673D02*
Y470D01*
Y504D01*
X1834Y470D01*
X1733D01*
X1699Y504D01*
Y639D01*
X1733Y673D01*
X1834D01*
X1868Y639D01*
X2173Y775D02*
Y470D01*
X2037D01*
X2003Y504D01*
Y605D01*
X2037Y639D01*
X2173D01*
X2308Y470D02*
Y673D01*
Y639D01*
X2342Y673D01*
X2444D01*
X2478Y639D01*
Y470D01*
X2681Y741D02*
D01*
Y673D02*
Y470D01*
X3223Y368D02*
Y673D01*
Y639D01*
X3257Y673D01*
X3358D01*
X3392Y639D01*
Y504D01*
X3358Y470D01*
X3257D01*
X3223Y504D01*
X3697Y673D02*
Y470D01*
Y504D01*
X3663Y470D01*
X3561D01*
X3527Y504D01*
Y639D01*
X3561Y673D01*
X3663D01*
X3697Y639D01*
X4002Y741D02*
D01*
Y673D02*
Y402D01*
X3968Y368D01*
X3866D01*
D01*
X4306Y504D02*
X4273Y470D01*
X4171D01*
X4137Y504D01*
Y639D01*
X4171Y673D01*
X4273D01*
X4306Y639D01*
Y605D01*
X4273Y572D01*
X4137D01*
X4611Y639D02*
X4577Y673D01*
X4476D01*
X4442Y639D01*
Y504D01*
X4476Y470D01*
X4577D01*
X4611Y504D01*
X4814Y741D02*
D01*
Y673D02*
Y470D01*
X5322D02*
Y673D01*
X5390D01*
X5424Y639D01*
X5458Y673D01*
X5492D01*
X5526Y639D01*
Y470D01*
X5424Y639D02*
Y504D01*
X5830Y673D02*
Y470D01*
Y504D01*
X5797Y470D01*
X5695D01*
X5661Y504D01*
Y639D01*
X5695Y673D01*
X5797D01*
X5830Y639D01*
X5932Y504D02*
X5966Y470D01*
X6101D01*
X6135Y504D01*
Y538D01*
X6101Y572D01*
X5966D01*
X5932Y605D01*
Y639D01*
X5966Y673D01*
X6101D01*
X6135Y639D01*
X6271Y775D02*
Y470D01*
X6406Y673D02*
X6305Y572D01*
X6406Y470D02*
X6271Y605D01*
X6745Y673D02*
Y470D01*
Y504D01*
X6711Y470D01*
X6609D01*
X6575Y504D01*
Y639D01*
X6609Y673D01*
X6711D01*
X6745Y639D01*
X1563Y267D02*
X1360D01*
Y-38D01*
Y131D02*
X1495D01*
X1868Y-4D02*
X1834Y-38D01*
X1733D01*
X1699Y-4D01*
Y131D01*
X1733Y165D01*
X1834D01*
X1868Y131D01*
Y97D01*
X1834Y64D01*
X1699D01*
X2003Y267D02*
Y-38D01*
X2139D01*
X2173Y-4D01*
Y97D01*
X2139Y131D01*
X2003D01*
X2308Y-38D02*
Y165D01*
Y131D01*
X2342Y165D01*
X2444D01*
X2478Y131D01*
X2749Y165D02*
Y-38D01*
Y-4D01*
X2715Y-38D01*
X2647D01*
X2613Y-4D01*
Y165D01*
X3087D02*
Y-38D01*
Y-4D01*
X3053Y-38D01*
X2952D01*
X2918Y-4D01*
Y131D01*
X2952Y165D01*
X3053D01*
X3087Y131D01*
X3223Y-38D02*
Y165D01*
Y131D01*
X3257Y165D01*
X3358D01*
X3392Y131D01*
X3527Y165D02*
Y-4D01*
X3561Y-38D01*
X3697D01*
Y165D01*
Y-106D01*
X3663Y-140D01*
X3561D01*
X4137Y199D02*
X4205Y267D01*
Y-38D01*
X4137D01*
X4273D01*
X4408Y233D02*
X4442Y267D01*
X4543D01*
X4577Y233D01*
Y131D01*
X4476D01*
X4577D01*
Y-4D01*
X4543Y-38D01*
X4442D01*
X4408Y-4D01*
X4814Y-106D02*
X4848Y-72D01*
Y-4D01*
X4814D01*
Y-38D01*
X4848D01*
X5322Y233D02*
X5356Y267D01*
X5458D01*
X5492Y233D01*
Y199D01*
X5322Y30D01*
Y-38D01*
X5492D01*
X5830Y233D02*
Y-4D01*
X5797Y-38D01*
X5661D01*
X5627Y-4D01*
Y233D01*
X5661Y267D01*
X5797D01*
X5830Y233D01*
Y199D01*
X5627Y-4D01*
X5932Y233D02*
X5966Y267D01*
X6067D01*
X6101Y233D01*
Y199D01*
X5932Y30D01*
Y-38D01*
X6101D01*
X6271Y199D02*
X6338Y267D01*
Y-38D01*
X6271D01*
X6406D01*
X6846Y233D02*
X6880Y267D01*
X6982D01*
X7016Y233D01*
Y199D01*
X6846Y30D01*
Y-38D01*
X7016D01*
X7151Y233D02*
X7185Y267D01*
X7287D01*
X7321Y233D01*
Y131D01*
X7219D01*
X7321D01*
Y-4D01*
X7287Y-38D01*
X7185D01*
X7151Y-4D01*
X7591Y165D02*
Y199D01*
X7558D01*
Y165D01*
X7591D01*
Y30D02*
Y64D01*
X7558D01*
Y30D01*
X7591D01*
X7795Y199D02*
X7862Y267D01*
Y-38D01*
X7795D01*
X7930D01*
X8099D02*
X8167D01*
X8235Y30D01*
Y233D01*
X8201Y267D01*
X8099D01*
X8066Y233D01*
Y165D01*
X8099Y131D01*
X8235D01*
X8506Y165D02*
Y199D01*
X8472D01*
Y165D01*
X8506D01*
Y30D02*
Y64D01*
X8472D01*
Y30D01*
X8506D01*
X8675Y233D02*
X8709Y267D01*
X8811D01*
X8845Y233D01*
Y131D01*
X8743D01*
X8845D01*
Y-4D01*
X8811Y-38D01*
X8709D01*
X8675Y-4D01*
X8980Y233D02*
X9014Y267D01*
X9115D01*
X9149Y233D01*
Y199D01*
X8980Y30D01*
Y-38D01*
X9149D01*
M02*
