M48
METRIC,TZ
T1C.750
T2C.300
%
M47, File: Drills.ncd
M71
G90
G05
T1
X22900Y46300
X27980
X25440
X33060
X30520
X35600
T2
X21400Y46200
X21900Y46900
X20900
X23000Y45100
Y43900
X23200Y35900
X22500Y36600
X22300Y35700
X21200Y30400
X21800Y29600
X22000Y33900
X23000Y35000
X22100Y34800
X21200Y28800
X22500
X23800
X25800
X24800
X28300Y24300
X28200Y28700
X27700Y29100
X27300Y29500
X28400Y34000
X27000
X25000Y30600
X23900Y34900
Y30600
X25500Y34300
X27500Y41400
X26800Y40700
X26100Y40000
X27100Y38700
X24700Y40500
X25300Y38000
X28200Y39100
X26400Y37900
X26300Y39100
X25700Y38600
X24800Y39000
X24700Y41200
X25100Y39700
X27800Y38100
X28200Y42100
X26600Y46000
X24100Y46100
X23700Y43900
X26700Y46900
X24100
X23700Y45100
X28900Y42800
X29200Y46000
X31800Y46900
X29300
X28500Y37600
X32500Y33900
X29700Y34700
X30300Y34000
X31300
X33000Y27200
X32100Y28300
X32200Y24300
X30800
X33000Y25800
X31200Y28500
X35800Y24300
Y26500
X33600Y24300
X33200Y28200
X33800Y26600
X34400Y34500
X34600Y35400
X33500Y34100
X34600Y38100
X34300Y37200
X34600Y36200
X33500Y38000
X33700Y43000
X34600Y42000
Y43600
X35000Y43000
X35800Y43500
X34400Y46900
X33200Y43900
M30
