G04 SolderMaskBottom *
G04 Layout NRF24L01_MOTOR.pcb *
G04 Designed with PCB elegance 3.52 *
G04 *
G04 *
%FSLAX44Y44*%
%MOMM*%
G75*
G01*
%IPPOS*%
%ADD100C,0.2000*%
%ADD200C,1.9000*%
%ADD201C,1.2500*%
%ADD400R,1.6000X0.6700*%
%ADD401R,0.6700X1.6000*%
%ADD402R,0.7500X1.6100*%
%ADD403R,0.8000X0.9000*%
%ADD404R,1.3400X1.2400*%
%ADD405R,0.9100X1.0300*%
%ADD406R,0.7700X2.0700*%
%ADD407R,0.5700X2.0700*%
%ADD408R,0.8600X1.0300*%
%ADD409R,1.0300X0.8600*%
%ADD410R,1.0300X0.9100*%
G54D400*
X232700Y414000D03*
Y422000D03*
Y430000D03*
Y374000D03*
Y382000D03*
Y390000D03*
Y398000D03*
Y406000D03*
X315300Y430000D03*
Y422000D03*
Y414000D03*
Y406000D03*
Y398000D03*
Y390000D03*
Y382000D03*
Y374000D03*
G54D401*
X278000Y360700D03*
X270000D03*
X262000D03*
X254000D03*
X246000D03*
Y443300D03*
X254000D03*
X262000D03*
X270000D03*
X278000D03*
X286000D03*
X294000D03*
X302000D03*
Y360700D03*
X294000D03*
X286000D03*
G54D200*
X214000Y248000D03*
X348000Y252900D03*
Y278300D03*
Y303700D03*
Y329100D03*
G54D402*
X212900Y321050D03*
X225600D03*
Y266950D03*
X212900D03*
X276400D03*
X263700D03*
X251000D03*
X238300D03*
Y321050D03*
X251000D03*
X263700D03*
X276400D03*
X289100D03*
Y266950D03*
G54D403*
X270500Y245000D03*
X255500D03*
G54D404*
X302100Y307100D03*
Y324900D03*
X325900D03*
Y307100D03*
G54D405*
X337400Y390000D03*
X352600D03*
X337400Y406000D03*
X352600D03*
G54D406*
X315502Y358000D03*
X334502D03*
G54D407*
X325001D03*
G54D201*
X229000Y463000D03*
X279800D03*
X254400D03*
X330600D03*
X305200D03*
X356000D03*
G54D408*
X329850Y448000D03*
X314150D03*
X355850D03*
X340150D03*
G54D409*
X214000Y452850D03*
Y437150D03*
Y426850D03*
Y411150D03*
G54D410*
Y400600D03*
Y385400D03*
Y374600D03*
Y359400D03*
G54D100*
M02*
