G04 SilkscreenTop *
G04 Layout NRF24L01_MOTOR.pcb *
G04 Designed with PCB elegance 3.52 *
G04 *
G04 *
%FSLAX44Y44*%
%MOMM*%
G75*
G01*
%IPPOS*%
%ADD100C,0.0000*%
%ADD101C,0.1530*%
%ADD102C,0.2000*%
%ADD200C,0.2000*%
%ADD201C,0.7000*%
%ADD202C,0.4000*%
G54D100*
G54D200*
X140500Y335500D02*
Y455500D01*
X320500Y335500D02*
X140500D01*
Y455500D02*
X320500D01*
X200500Y335500D02*
Y455500D01*
X306500Y313900D02*
X207500D01*
Y284100D01*
X306500D02*
X207500D01*
X320500Y448000D02*
Y455500D01*
X306500Y313900D02*
Y284100D01*
X320500Y335500D02*
Y344000D01*
X331000Y300000D02*
Y298000D01*
X326000Y300000D02*
Y298000D01*
X318000Y300000D02*
Y298000D01*
X308700Y262400D02*
Y265600D01*
X321300Y262400D02*
Y265600D01*
X352000Y300000D02*
Y298000D01*
X344000Y300000D02*
Y298000D01*
X339000Y300000D02*
Y298000D01*
X360500Y411100D02*
X331500D01*
X360500Y402900D02*
X331500D01*
X360500Y411100D02*
Y402900D01*
X331500Y411100D02*
Y402900D01*
X343500Y445000D02*
X340500D01*
X343500Y453000D02*
X340500D01*
G54D201*
X309800Y319000D03*
G54D202*
X184900Y355900D02*
X164900D01*
X154900Y365900D01*
X164900Y375900D01*
X171567D01*
Y355900D01*
Y375900D01*
X184900D01*
Y385900D02*
X154900D01*
X184900Y405900D01*
X154900D01*
Y415900D02*
Y435900D01*
Y425900D02*
X184900D01*
G54D101*
X337333Y345000D02*
X338000Y345667D01*
Y348333D01*
X337333Y349000D01*
X335333D01*
X334667Y348333D01*
Y345667D01*
X334000Y345000D01*
X332667D01*
X332000Y345667D01*
Y348333D01*
X332667Y349000D01*
Y353000D02*
X337333D01*
X338000Y353667D01*
X334000Y351667D02*
Y354333D01*
Y361000D02*
X338000D01*
X337333D01*
X338000Y360333D01*
Y358333D01*
X337333Y357667D01*
X334667D01*
X334000Y358333D01*
Y360333D01*
X334667Y361000D01*
X338000Y363667D02*
X334000D01*
X334667D01*
X334000Y364333D01*
Y366333D01*
X334667Y367000D01*
X338000D01*
X337333Y373000D02*
X338000Y372333D01*
Y370333D01*
X337333Y369667D01*
X334667D01*
X334000Y370333D01*
Y372333D01*
X334667Y373000D01*
X335333D01*
X336000Y372333D01*
Y369667D01*
X332000Y375667D02*
X338000D01*
X334000Y378333D02*
X336000Y376333D01*
X338000Y378333D02*
X335333Y375667D01*
X332000Y381000D02*
Y385000D01*
Y383000D02*
X338000D01*
Y387000D02*
X332000D01*
X334000Y389000D01*
X332000Y391000D01*
X338000D01*
X313667Y329000D02*
Y326333D01*
X315000Y325000D01*
X315667D01*
X317000Y326333D01*
Y329000D01*
X319667Y329667D02*
X321000Y331000D01*
Y325000D01*
X319667D01*
X322333D01*
X327000D02*
X327667D01*
Y325667D01*
X327000D01*
Y325000D01*
X335000Y330333D02*
Y325667D01*
X334333Y325000D01*
X331667D01*
X331000Y325667D01*
Y330333D01*
X331667Y331000D01*
X334333D01*
X335000Y330333D01*
Y329667D01*
X331000Y325667D01*
X332667Y274000D02*
Y278000D01*
Y277333D01*
X333333Y278000D01*
X335333D01*
X336000Y277333D01*
Y274000D01*
X338000D02*
Y280000D01*
X341333D01*
X342000Y279333D01*
Y278000D01*
X341333Y277333D01*
X338000D01*
X338667D02*
X342000Y274000D01*
X348000Y280000D02*
X344000D01*
Y274000D01*
Y277333D02*
X346667D01*
X350000Y279333D02*
X350667Y280000D01*
X352667D01*
X353333Y279333D01*
Y278667D01*
X350000Y275333D01*
Y274000D01*
X353333D01*
X359333Y276667D02*
X356000D01*
Y277333D01*
X358667Y280000D01*
Y274000D01*
G54D102*
M02*
