G04 SolderMaskTop *
G04 Layout NRF24L01_MOTOR.pcb *
G04 Designed with PCB elegance 3.52 *
G04 *
G04 *
%FSLAX44Y44*%
%MOMM*%
G75*
G01*
%IPPOS*%
%ADD100C,0.2000*%
%ADD200C,1.9000*%
%ADD201C,1.2500*%
%ADD400R,0.7500X1.8100*%
%ADD401R,1.5700X1.0900*%
%ADD402R,2.3000X1.1000*%
%ADD403R,0.7200X1.2400*%
%ADD404R,0.8600X1.0300*%
%ADD405R,1.0300X0.9100*%
G54D400*
X225250Y325050D03*
X212550D03*
Y272950D03*
X225250D03*
X237950D03*
X250650D03*
X263350D03*
X276050D03*
Y325050D03*
X263350D03*
X250650D03*
X237950D03*
X301450D03*
X288750D03*
Y272950D03*
X301450D03*
G54D401*
X315000Y254850D03*
Y273150D03*
G54D402*
X316500Y415050D03*
Y427750D03*
Y440450D03*
Y351550D03*
Y364250D03*
Y376950D03*
Y389650D03*
Y402350D03*
G54D200*
X218300Y253000D03*
X243700D03*
X270300D03*
X295700D03*
X348000D03*
Y324000D03*
G54D403*
X355500Y419350D03*
X336500D03*
X346000Y394650D03*
G54D201*
X229000Y463000D03*
X279800D03*
X254400D03*
X330600D03*
X305200D03*
X356000D03*
G54D404*
X334150Y449000D03*
X349850D03*
G54D405*
X335000Y306600D03*
Y291400D03*
X322000Y306600D03*
Y291400D03*
X348000D03*
Y306600D03*
G54D100*
M02*
